Commissioner-Thin.ufo
<glyph name="quotesingle" format="2">
  <advance width="366"/>
  <unicode hex="0027"/>
  <outline>
    <contour>
      <point x="130" y="932" type="curve"/>
      <point x="182" y="934" type="line"/>
      <point x="182" y="1120"/>
      <point x="194" y="1306"/>
      <point x="206" y="1488" type="curve"/>
      <point x="106" y="1486" type="line"/>
      <point x="118" y="1304"/>
      <point x="130" y="1120"/>
    </contour>
  </outline>
</glyph>
<glyph name="plus" format="2">
  <advance width="1160"/>
  <unicode hex="002B"/>
  <outline>
    <contour>
      <point x="550" y="130" type="curve"/>
      <point x="610" y="130" type="line"/>
      <point x="610" y="246"/>
      <point x="610" y="356"/>
      <point x="610" y="450" type="curve"/>
      <point x="610" y="730" type="line"/>
      <point x="610" y="824"/>
      <point x="610" y="934"/>
      <point x="610" y="1050" type="curve"/>
      <point x="550" y="1050" type="line"/>
      <point x="550" y="934"/>
      <point x="550" y="824"/>
      <point x="550" y="730" type="curve"/>
      <point x="550" y="450" type="line"/>
      <point x="550" y="356"/>
      <point x="550" y="246"/>
    </contour>
    <contour>
      <point x="140" y="560" type="line"/>
      <point x="256" y="560"/>
      <point x="366" y="560"/>
      <point x="460" y="560" type="curve"/>
      <point x="700" y="560" type="line"/>
      <point x="794" y="560"/>
      <point x="904" y="560"/>
      <point x="1020" y="560" type="curve"/>
      <point x="1020" y="620" type="line"/>
      <point x="904" y="620"/>
      <point x="794" y="620"/>
      <point x="700" y="620" type="curve"/>
      <point x="460" y="620" type="line"/>
      <point x="366" y="620"/>
      <point x="256" y="620"/>
      <point x="140" y="620" type="curve"/>
    </contour>
  </outline>
</glyph>
<glyph name="comma" format="2">
  <advance width="428"/>
  <unicode hex="002C"/>
  <outline>
    <contour>
      <point x="90" y="-314" type="curve"/>
      <point x="140" y="-312" type="line"/>
      <point x="234" y="-220"/>
      <point x="302" y="-56"/>
      <point x="302" y="88" type="curve" smooth="yes"/>
      <point x="302" y="136"/>
      <point x="282" y="170"/>
      <point x="238" y="172" type="curve"/>
      <point x="194" y="170" type="line"/>
      <point x="194" y="122"/>
      <point x="194" y="74"/>
      <point x="194" y="26" type="curve"/>
      <point x="194" y="-108"/>
      <point x="172" y="-204"/>
    </contour>
  </outline>
</glyph>
<glyph name="hyphen" format="2">
  <advance width="840"/>
  <unicode hex="002D"/>
  <outline>
    <contour>
      <point x="140" y="560" type="line"/>
      <point x="242" y="560"/>
      <point x="338" y="560"/>
      <point x="420" y="560" type="curve"/>
      <point x="502" y="560"/>
      <point x="598" y="560"/>
      <point x="700" y="560" type="curve"/>
      <point x="700" y="620" type="line"/>
      <point x="598" y="620"/>
      <point x="502" y="620"/>
      <point x="420" y="620" type="curve"/>
      <point x="338" y="620"/>
      <point x="242" y="620"/>
      <point x="140" y="620" type="curve"/>
    </contour>
  </outline>
</glyph>
<glyph name="period" format="2">
  <advance width="428"/>
  <unicode hex="002E"/>
  <outline>
    <contour>
      <point x="214" y="-18" type="curve" smooth="yes"/>
      <point x="270" y="-18"/>
      <point x="304" y="16"/>
      <point x="304" y="72" type="curve" smooth="yes"/>
      <point x="304" y="130"/>
      <point x="270" y="162"/>
      <point x="214" y="162" type="curve" smooth="yes"/>
      <point x="160" y="162"/>
      <point x="124" y="130"/>
      <point x="124" y="72" type="curve" smooth="yes"/>
      <point x="124" y="16"/>
      <point x="160" y="-18"/>
    </contour>
  </outline>
</glyph>
<glyph name="one" format="2">
  <advance width="816"/>
  <unicode hex="0031"/>
  <outline>
    <contour>
      <point x="98" y="1050" type="line"/>
      <point x="244" y="1134"/>
      <point x="388" y="1220"/>
      <point x="534" y="1304" type="curve"/>
      <point x="534" y="1372" type="line"/>
      <point x="382" y="1284"/>
      <point x="232" y="1198"/>
      <point x="80" y="1110" type="curve"/>
    </contour>
    <contour>
      <point x="506" y="0" type="curve"/>
      <point x="566" y="0" type="line"/>
      <point x="566" y="150"/>
      <point x="566" y="280"/>
      <point x="566" y="442" type="curve"/>
      <point x="566" y="894" type="line"/>
      <point x="566" y="1064"/>
      <point x="566" y="1224"/>
      <point x="566" y="1368" type="curve"/>
      <point x="534" y="1372" type="line"/>
      <point x="506" y="1336" type="line"/>
      <point x="506" y="1188"/>
      <point x="506" y="1040"/>
      <point x="506" y="894" type="curve"/>
      <point x="506" y="442" type="line"/>
      <point x="506" y="280"/>
      <point x="506" y="150"/>
    </contour>
  </outline>
</glyph>
<glyph name="three" format="2">
  <advance width="1122"/>
  <unicode hex="0033"/>
  <outline>
    <contour>
      <point x="548" y="-18" type="curve" smooth="yes"/>
      <point x="850" y="-18"/>
      <point x="1002" y="150"/>
      <point x="1002" y="358" type="curve" smooth="yes"/>
      <point x="1002" y="584"/>
      <point x="824" y="698"/>
      <point x="678" y="722" type="curve"/>
      <point x="678" y="734" type="line"/>
      <point x="824" y="770"/>
      <point x="950" y="898"/>
      <point x="950" y="1070" type="curve" smooth="yes"/>
      <point x="950" y="1270"/>
      <point x="778" y="1392"/>
      <point x="558" y="1392" type="curve" smooth="yes"/>
      <point x="408" y="1392"/>
      <point x="248" y="1332"/>
      <point x="134" y="1254" type="curve"/>
      <point x="146" y="1184" type="line"/>
      <point x="284" y="1282"/>
      <point x="434" y="1328"/>
      <point x="560" y="1328" type="curve"/>
      <point x="746" y="1328"/>
      <point x="888" y="1248"/>
      <point x="888" y="1070" type="curve" smooth="yes"/>
      <point x="888" y="896"/>
      <point x="758" y="756"/>
      <point x="448" y="756" type="curve"/>
      <point x="416" y="756"/>
      <point x="384" y="756"/>
      <point x="352" y="756" type="curve"/>
      <point x="352" y="696" type="line"/>
      <point x="384" y="696"/>
      <point x="416" y="696"/>
      <point x="448" y="696" type="curve"/>
      <point x="756" y="696"/>
      <point x="940" y="576"/>
      <point x="940" y="358" type="curve" smooth="yes"/>
      <point x="940" y="178"/>
      <point x="822" y="46"/>
      <point x="546" y="46" type="curve"/>
      <point x="412" y="46"/>
      <point x="258" y="82"/>
      <point x="112" y="166" type="curve"/>
      <point x="100" y="100" type="line"/>
      <point x="220" y="32"/>
      <point x="392" y="-18"/>
    </contour>
  </outline>
</glyph>
<glyph name="four" format="2">
  <advance width="1178"/>
  <unicode hex="0034"/>
  <outline>
    <contour>
      <point x="764" y="0" type="curve"/>
      <point x="824" y="0" type="line"/>
      <point x="824" y="122"/>
      <point x="824" y="216"/>
      <point x="824" y="364" type="curve"/>
      <point x="824" y="886" type="line"/>
      <point x="824" y="1044"/>
      <point x="824" y="1202"/>
      <point x="824" y="1368" type="curve"/>
      <point x="762" y="1368" type="line"/>
      <point x="696" y="1274"/>
      <point x="628" y="1178"/>
      <point x="562" y="1084" type="curve"/>
      <point x="378" y="824" type="line"/>
      <point x="284" y="692"/>
      <point x="158" y="512"/>
      <point x="70" y="386" type="curve"/>
      <point x="70" y="338" type="line"/>
      <point x="808" y="338" type="line"/>
      <point x="902" y="338"/>
      <point x="1040" y="338"/>
      <point x="1126" y="338" type="curve"/>
      <point x="1126" y="398" type="line"/>
      <point x="1040" y="398"/>
      <point x="902" y="398"/>
      <point x="808" y="398" type="curve"/>
      <point x="782" y="398" type="line"/>
      <point x="126" y="398" type="line"/>
      <point x="130" y="370" type="line"/>
      <point x="198" y="466"/>
      <point x="264" y="560"/>
      <point x="332" y="656" type="curve"/>
      <point x="586" y="1016" type="line"/>
      <point x="664" y="1126"/>
      <point x="740" y="1236"/>
      <point x="820" y="1348" type="curve"/>
      <point x="764" y="1324" type="line"/>
      <point x="764" y="1178"/>
      <point x="764" y="1032"/>
      <point x="764" y="886" type="curve"/>
      <point x="764" y="386" type="line"/>
      <point x="764" y="364" type="line"/>
      <point x="764" y="216"/>
      <point x="764" y="122"/>
    </contour>
  </outline>
</glyph>
<glyph name="equal" format="2">
  <advance width="1120"/>
  <unicode hex="003D"/>
  <outline>
    <contour>
      <point x="140" y="350" type="line"/>
      <point x="256" y="350"/>
      <point x="366" y="350"/>
      <point x="460" y="350" type="curve"/>
      <point x="660" y="350" type="line"/>
      <point x="754" y="350"/>
      <point x="864" y="350"/>
      <point x="980" y="350" type="curve"/>
      <point x="980" y="410" type="line"/>
      <point x="864" y="410"/>
      <point x="754" y="410"/>
      <point x="660" y="410" type="curve"/>
      <point x="460" y="410" type="line"/>
      <point x="366" y="410"/>
      <point x="256" y="410"/>
      <point x="140" y="410" type="curve"/>
    </contour>
    <contour>
      <point x="140" y="770" type="line"/>
      <point x="256" y="770"/>
      <point x="366" y="770"/>
      <point x="460" y="770" type="curve"/>
      <point x="660" y="770" type="line"/>
      <point x="754" y="770"/>
      <point x="864" y="770"/>
      <point x="980" y="770" type="curve"/>
      <point x="980" y="830" type="line"/>
      <point x="864" y="830"/>
      <point x="754" y="830"/>
      <point x="660" y="830" type="curve"/>
      <point x="460" y="830" type="line"/>
      <point x="366" y="830"/>
      <point x="256" y="830"/>
      <point x="140" y="830" type="curve"/>
    </contour>
  </outline>
</glyph>
<glyph name="E" format="2">
  <advance width="1182"/>
  <unicode hex="0045"/>
  <anchor x="640" y="0" name="bottom"/>
  <anchor x="1056" y="0" name="ogonek"/>
  <anchor x="640" y="1426" name="top"/>
  <anchor x="74" y="1426" name="topleft"/>
  <outline>
    <contour>
      <point x="220" y="0" type="curve"/>
      <point x="284" y="0" type="line"/>
      <point x="284" y="8" type="line"/>
      <point x="284" y="170"/>
      <point x="284" y="310"/>
      <point x="284" y="484" type="curve"/>
      <point x="284" y="944" type="line"/>
      <point x="284" y="1118"/>
      <point x="284" y="1258"/>
      <point x="284" y="1420" type="curve"/>
      <point x="284" y="1426" type="line"/>
      <point x="220" y="1426" type="line"/>
      <point x="220" y="1264"/>
      <point x="220" y="1124"/>
      <point x="220" y="950" type="curve"/>
      <point x="220" y="476" type="line"/>
      <point x="220" y="302"/>
      <point x="220" y="162"/>
    </contour>
    <contour>
      <point x="272" y="0" type="line"/>
      <point x="1056" y="0" type="line"/>
      <point x="1056" y="62" type="line"/>
      <point x="902" y="62"/>
      <point x="738" y="62"/>
      <point x="552" y="62" type="curve"/>
      <point x="272" y="62" type="line"/>
    </contour>
    <contour>
      <point x="272" y="694" type="line"/>
      <point x="560" y="694" type="line"/>
      <point x="748" y="694"/>
      <point x="874" y="694"/>
      <point x="1012" y="694" type="curve"/>
      <point x="1012" y="756" type="line"/>
      <point x="882" y="756"/>
      <point x="754" y="756"/>
      <point x="562" y="756" type="curve"/>
      <point x="272" y="756" type="line"/>
    </contour>
    <contour>
      <point x="272" y="1364" type="line"/>
      <point x="544" y="1364" type="line"/>
      <point x="764" y="1364"/>
      <point x="916" y="1364"/>
      <point x="1058" y="1364" type="curve"/>
      <point x="1058" y="1426" type="line"/>
      <point x="272" y="1426" type="line"/>
    </contour>
  </outline>
</glyph>
<glyph name="I" format="2">
  <advance width="504"/>
  <unicode hex="0049"/>
  <anchor x="252" y="0" name="bottom"/>
  <anchor x="284" y="0" name="ogonek"/>
  <anchor x="252" y="1426" name="top"/>
  <anchor x="74" y="1426" name="topleft"/>
  <outline>
    <contour>
      <point x="220" y="0" type="curve"/>
      <point x="284" y="0" type="line"/>
      <point x="284" y="162"/>
      <point x="284" y="302"/>
      <point x="284" y="476" type="curve"/>
      <point x="284" y="950" type="line"/>
      <point x="284" y="1124"/>
      <point x="284" y="1264"/>
      <point x="284" y="1426" type="curve"/>
      <point x="220" y="1426" type="line"/>
      <point x="220" y="1264"/>
      <point x="220" y="1124"/>
      <point x="220" y="950" type="curve"/>
      <point x="220" y="476" type="line"/>
      <point x="220" y="302"/>
      <point x="220" y="162"/>
    </contour>
  </outline>
</glyph>
<glyph name="K" format="2">
  <advance width="1298"/>
  <unicode hex="004B"/>
  <anchor x="664" y="0" name="bottom"/>
  <anchor x="664" y="1426" name="top"/>
  <outline>
    <contour>
      <point x="1126" y="0" type="curve"/>
      <point x="1222" y="0" type="line"/>
      <point x="1092" y="118"/>
      <point x="886" y="304"/>
      <point x="730" y="444" type="curve"/>
      <point x="394" y="748" type="line"/>
      <point x="394" y="720" type="line"/>
      <point x="694" y="990" type="line"/>
      <point x="852" y="1132"/>
      <point x="1012" y="1274"/>
      <point x="1182" y="1426" type="curve"/>
      <point x="1086" y="1426" type="line"/>
      <point x="908" y="1266"/>
      <point x="784" y="1156"/>
      <point x="646" y="1032" type="curve"/>
      <point x="352" y="766" type="line"/>
      <point x="268" y="766" type="line"/>
      <point x="268" y="704" type="line"/>
      <point x="350" y="704" type="line"/>
      <point x="694" y="392" type="line"/>
      <point x="828" y="272"/>
      <point x="964" y="148"/>
    </contour>
    <contour>
      <point x="220" y="0" type="curve"/>
      <point x="284" y="0" type="line"/>
      <point x="284" y="162"/>
      <point x="284" y="302"/>
      <point x="284" y="476" type="curve"/>
      <point x="284" y="950" type="line"/>
      <point x="284" y="1124"/>
      <point x="284" y="1264"/>
      <point x="284" y="1426" type="curve"/>
      <point x="220" y="1426" type="line"/>
      <point x="220" y="1264"/>
      <point x="220" y="1124"/>
      <point x="220" y="950" type="curve"/>
      <point x="220" y="476" type="line"/>
      <point x="220" y="302"/>
      <point x="220" y="162"/>
    </contour>
  </outline>
</glyph>
<glyph name="M" format="2">
  <advance width="1906"/>
  <unicode hex="004D"/>
  <anchor x="954" y="0" name="bottom"/>
  <anchor x="954" y="1426" name="top"/>
  <outline>
    <contour>
      <point x="160" y="0" type="curve"/>
      <point x="228" y="0" type="line"/>
      <point x="264" y="294"/>
      <point x="296" y="562"/>
      <point x="324" y="792" type="curve"/>
      <point x="384" y="1288" type="line"/>
      <point x="390" y="1288" type="line"/>
      <point x="616" y="748" type="line"/>
      <point x="720" y="498"/>
      <point x="842" y="208"/>
      <point x="930" y="0" type="curve"/>
      <point x="978" y="0" type="line"/>
      <point x="1074" y="224"/>
      <point x="1188" y="494"/>
      <point x="1296" y="752" type="curve"/>
      <point x="1522" y="1288" type="line"/>
      <point x="1528" y="1288" type="line"/>
      <point x="1588" y="792" type="line"/>
      <point x="1616" y="562"/>
      <point x="1648" y="294"/>
      <point x="1684" y="0" type="curve"/>
      <point x="1746" y="0" type="line"/>
      <point x="1728" y="162"/>
      <point x="1710" y="304"/>
      <point x="1690" y="476" type="curve"/>
      <point x="1634" y="946" type="line"/>
      <point x="1612" y="1122"/>
      <point x="1596" y="1262"/>
      <point x="1576" y="1426" type="curve"/>
      <point x="1510" y="1426" type="line"/>
      <point x="1412" y="1192"/>
      <point x="1322" y="974"/>
      <point x="1230" y="756" type="curve"/>
      <point x="960" y="110" type="line"/>
      <point x="952" y="110" type="line"/>
      <point x="682" y="756" type="line"/>
      <point x="590" y="974"/>
      <point x="500" y="1192"/>
      <point x="402" y="1426" type="curve"/>
      <point x="338" y="1426" type="line"/>
      <point x="318" y="1260"/>
      <point x="300" y="1118"/>
      <point x="278" y="946" type="curve"/>
      <point x="220" y="476" type="line"/>
      <point x="198" y="302"/>
      <point x="180" y="158"/>
    </contour>
  </outline>
</glyph>
<glyph name="S" format="2">
  <advance width="1150"/>
  <unicode hex="0053"/>
  <anchor x="586" y="0" name="bottom"/>
  <anchor x="586" y="1426" name="top"/>
  <outline>
    <contour>
      <point x="604" y="-18" type="curve" smooth="yes"/>
      <point x="916" y="-18"/>
      <point x="1054" y="160"/>
      <point x="1054" y="370" type="curve" smooth="yes"/>
      <point x="1054" y="556"/>
      <point x="946" y="652"/>
      <point x="602" y="766" type="curve" smooth="yes"/>
      <point x="318" y="860"/>
      <point x="198" y="924"/>
      <point x="198" y="1090" type="curve" smooth="yes"/>
      <point x="198" y="1298"/>
      <point x="372" y="1384"/>
      <point x="564" y="1384" type="curve"/>
      <point x="684" y="1384"/>
      <point x="834" y="1350"/>
      <point x="952" y="1266" type="curve"/>
      <point x="964" y="1338" type="line"/>
      <point x="892" y="1392"/>
      <point x="734" y="1450"/>
      <point x="570" y="1450" type="curve" smooth="yes"/>
      <point x="288" y="1450"/>
      <point x="132" y="1290"/>
      <point x="132" y="1090" type="curve" smooth="yes"/>
      <point x="132" y="888"/>
      <point x="292" y="800"/>
      <point x="574" y="708" type="curve" smooth="yes"/>
      <point x="840" y="622"/>
      <point x="988" y="552"/>
      <point x="988" y="370" type="curve" smooth="yes"/>
      <point x="988" y="132"/>
      <point x="814" y="48"/>
      <point x="604" y="48" type="curve"/>
      <point x="430" y="48"/>
      <point x="292" y="94"/>
      <point x="160" y="164" type="curve"/>
      <point x="148" y="96" type="line"/>
      <point x="236" y="42"/>
      <point x="424" y="-18"/>
    </contour>
  </outline>
</glyph>
<glyph name="bracketleft" format="2">
  <advance width="690"/>
  <unicode hex="005B"/>
  <outline>
    <contour>
      <point x="222" y="-224" type="curve"/>
      <point x="284" y="-224" type="line"/>
      <point x="284" y="-216" type="line"/>
      <point x="284" y="-54"/>
      <point x="284" y="86"/>
      <point x="284" y="260" type="curve"/>
      <point x="284" y="1038" type="line"/>
      <point x="284" y="1212"/>
      <point x="284" y="1352"/>
      <point x="284" y="1514" type="curve"/>
      <point x="284" y="1520" type="line"/>
      <point x="222" y="1520" type="line"/>
      <point x="222" y="1358"/>
      <point x="222" y="1218"/>
      <point x="222" y="1044" type="curve"/>
      <point x="222" y="252" type="line"/>
      <point x="222" y="78"/>
      <point x="222" y="-62"/>
    </contour>
    <contour>
      <point x="272" y="-224" type="line"/>
      <point x="668" y="-224" type="line"/>
      <point x="668" y="-164" type="line"/>
      <point x="570" y="-164"/>
      <point x="466" y="-164"/>
      <point x="350" y="-164" type="curve"/>
      <point x="272" y="-164" type="line"/>
    </contour>
    <contour>
      <point x="272" y="1460" type="line"/>
      <point x="344" y="1460" type="line"/>
      <point x="484" y="1460"/>
      <point x="580" y="1460"/>
      <point x="670" y="1460" type="curve"/>
      <point x="670" y="1520" type="line"/>
      <point x="272" y="1520" type="line"/>
    </contour>
  </outline>
</glyph>
<glyph name="underscore" format="2">
  <advance width="760"/>
  <unicode hex="005F"/>
  <outline>
    <contour>
      <point x="-20" y="-176" type="line"/>
      <point x="96" y="-176"/>
      <point x="206" y="-176"/>
      <point x="300" y="-176" type="curve"/>
      <point x="460" y="-176" type="line"/>
      <point x="554" y="-176"/>
      <point x="664" y="-176"/>
      <point x="780" y="-176" type="curve"/>
      <point x="780" y="-120" type="line"/>
      <point x="664" y="-120"/>
      <point x="554" y="-120"/>
      <point x="460" y="-120" type="curve"/>
      <point x="300" y="-120" type="line"/>
      <point x="206" y="-120"/>
      <point x="96" y="-120"/>
      <point x="-20" y="-120" type="curve"/>
    </contour>
  </outline>
</glyph>
<glyph name="a" format="2">
  <advance width="1032"/>
  <unicode hex="0061"/>
  <anchor x="528" y="0" name="bottom"/>
  <anchor x="852" y="0" name="ogonek"/>
  <anchor x="528" y="988" name="top"/>
  <outline>
    <contour>
      <point x="434" y="-18" type="curve" smooth="yes"/>
      <point x="580" y="-18"/>
      <point x="714" y="64"/>
      <point x="782" y="160" type="curve"/>
      <point x="794" y="160" type="line"/>
      <point x="794" y="0" type="line"/>
      <point x="852" y="0" type="line"/>
      <point x="852" y="106"/>
      <point x="852" y="194"/>
      <point x="852" y="274" type="curve"/>
      <point x="852" y="422" type="line" smooth="yes"/>
      <point x="852" y="514"/>
      <point x="852" y="618"/>
      <point x="852" y="678" type="curve" smooth="yes"/>
      <point x="852" y="910"/>
      <point x="726" y="1008"/>
      <point x="532" y="1008" type="curve" smooth="yes"/>
      <point x="414" y="1008"/>
      <point x="270" y="972"/>
      <point x="174" y="930" type="curve"/>
      <point x="180" y="864" type="line"/>
      <point x="332" y="926"/>
      <point x="440" y="944"/>
      <point x="532" y="944" type="curve" smooth="yes"/>
      <point x="678" y="944"/>
      <point x="804" y="900"/>
      <point x="794" y="624" type="curve"/>
      <point x="448" y="552" type="line" smooth="yes"/>
      <point x="310" y="524"/>
      <point x="132" y="462"/>
      <point x="132" y="254" type="curve" smooth="yes"/>
      <point x="132" y="92"/>
      <point x="242" y="-18"/>
    </contour>
    <contour>
      <point x="434" y="44" type="curve" smooth="yes"/>
      <point x="294" y="44"/>
      <point x="194" y="104"/>
      <point x="194" y="256" type="curve" smooth="yes"/>
      <point x="194" y="410"/>
      <point x="322" y="468"/>
      <point x="472" y="496" type="curve" smooth="yes"/>
      <point x="698" y="538"/>
      <point x="756" y="560"/>
      <point x="794" y="578" type="curve"/>
      <point x="792" y="282" type="line"/>
      <point x="712" y="112"/>
      <point x="564" y="44"/>
    </contour>
  </outline>
</glyph>
<glyph name="c" format="2">
  <advance width="1004"/>
  <unicode hex="0063"/>
  <anchor x="580" y="0" name="bottom"/>
  <anchor x="562" y="988" name="top"/>
  <outline>
    <contour>
      <point x="608" y="-18" type="curve" smooth="yes"/>
      <point x="732" y="-18"/>
      <point x="836" y="18"/>
      <point x="898" y="56" type="curve"/>
      <point x="884" y="124" type="line"/>
      <point x="798" y="70"/>
      <point x="702" y="46"/>
      <point x="608" y="46" type="curve" smooth="yes"/>
      <point x="324" y="46"/>
      <point x="186" y="244"/>
      <point x="186" y="496" type="curve" smooth="yes"/>
      <point x="186" y="770"/>
      <point x="346" y="944"/>
      <point x="592" y="944" type="curve"/>
      <point x="674" y="944"/>
      <point x="772" y="926"/>
      <point x="882" y="862" type="curve"/>
      <point x="892" y="930" type="line"/>
      <point x="816" y="974"/>
      <point x="704" y="1008"/>
      <point x="590" y="1008" type="curve" smooth="yes"/>
      <point x="300" y="1008"/>
      <point x="124" y="786"/>
      <point x="124" y="496" type="curve" smooth="yes"/>
      <point x="124" y="208"/>
      <point x="298" y="-18"/>
    </contour>
  </outline>
</glyph>
<glyph name="h" format="2">
  <advance width="1138"/>
  <unicode hex="0068"/>
  <guideline x="103" y="731" angle="15.2551"/>
  <anchor x="584" y="0" name="bottom"/>
  <anchor x="584" y="818" name="center"/>
  <anchor x="544" y="1446" name="top"/>
  <outline>
    <contour>
      <point x="210" y="0" type="curve"/>
      <point x="270" y="0" type="line"/>
      <point x="270" y="150"/>
      <point x="270" y="280"/>
      <point x="270" y="442" type="curve"/>
      <point x="270" y="690" type="line"/>
      <point x="360" y="830"/>
      <point x="480" y="944"/>
      <point x="652" y="944" type="curve" smooth="yes"/>
      <point x="838" y="944"/>
      <point x="898" y="844"/>
      <point x="898" y="652" type="curve"/>
      <point x="898" y="442" type="line"/>
      <point x="898" y="288"/>
      <point x="898" y="150"/>
      <point x="898" y="0" type="curve"/>
      <point x="958" y="0" type="line"/>
      <point x="958" y="150"/>
      <point x="958" y="288"/>
      <point x="958" y="442" type="curve"/>
      <point x="958" y="518"/>
      <point x="958" y="566"/>
      <point x="958" y="652" type="curve" smooth="yes"/>
      <point x="958" y="880"/>
      <point x="874" y="1008"/>
      <point x="654" y="1008" type="curve" smooth="yes"/>
      <point x="466" y="1008"/>
      <point x="342" y="886"/>
      <point x="282" y="802" type="curve"/>
      <point x="270" y="802" type="line"/>
      <point x="270" y="988" type="line"/>
      <point x="270" y="1158"/>
      <point x="270" y="1316"/>
      <point x="270" y="1478" type="curve"/>
      <point x="210" y="1462" type="line"/>
      <point x="210" y="1316"/>
      <point x="210" y="1158"/>
      <point x="210" y="988" type="curve"/>
      <point x="210" y="442" type="line"/>
      <point x="210" y="280"/>
      <point x="210" y="150"/>
    </contour>
  </outline>
</glyph>
<glyph name="l" format="2">
  <advance width="480"/>
  <unicode hex="006C"/>
  <anchor x="240" y="0" name="bottom"/>
  <anchor x="240" y="818" name="center"/>
  <anchor x="240" y="1446" name="top"/>
  <anchor x="388" y="988" name="topright"/>
  <outline>
    <contour>
      <point x="210" y="0" type="curve"/>
      <point x="270" y="0" type="line"/>
      <point x="270" y="150"/>
      <point x="270" y="280"/>
      <point x="270" y="442" type="curve"/>
      <point x="270" y="988" type="line"/>
      <point x="270" y="1158"/>
      <point x="270" y="1314"/>
      <point x="270" y="1478" type="curve"/>
      <point x="210" y="1462" type="line"/>
      <point x="210" y="1318"/>
      <point x="210" y="1158"/>
      <point x="210" y="988" type="curve"/>
      <point x="210" y="442" type="line"/>
      <point x="210" y="280"/>
      <point x="210" y="150"/>
    </contour>
  </outline>
</glyph>
<glyph name="m" format="2">
  <advance width="1744"/>
  <unicode hex="006D"/>
  <anchor x="892" y="0" name="bottom"/>
  <anchor x="892" y="988" name="top"/>
  <outline>
    <contour>
      <point x="210" y="0" type="curve"/>
      <point x="270" y="0" type="line"/>
      <point x="270" y="150"/>
      <point x="270" y="280"/>
      <point x="270" y="442" type="curve"/>
      <point x="270" y="690" type="line"/>
      <point x="356" y="826"/>
      <point x="468" y="944"/>
      <point x="630" y="944" type="curve" smooth="yes"/>
      <point x="806" y="944"/>
      <point x="862" y="844"/>
      <point x="862" y="652" type="curve"/>
      <point x="862" y="442" type="line"/>
      <point x="862" y="288"/>
      <point x="862" y="150"/>
      <point x="862" y="0" type="curve"/>
      <point x="922" y="0" type="line"/>
      <point x="922" y="150"/>
      <point x="922" y="288"/>
      <point x="922" y="442" type="curve"/>
      <point x="922" y="518"/>
      <point x="922" y="566"/>
      <point x="922" y="652" type="curve" smooth="yes"/>
      <point x="922" y="690"/>
      <point x="920" y="724"/>
      <point x="916" y="758" type="curve"/>
      <point x="914" y="766" type="line"/>
      <point x="890" y="922"/>
      <point x="804" y="1008"/>
      <point x="634" y="1008" type="curve" smooth="yes"/>
      <point x="456" y="1008"/>
      <point x="340" y="886"/>
      <point x="282" y="804" type="curve"/>
      <point x="270" y="804" type="line"/>
      <point x="270" y="994" type="line"/>
      <point x="210" y="988" type="line"/>
      <point x="210" y="840"/>
      <point x="210" y="684"/>
      <point x="210" y="542" type="curve"/>
      <point x="210" y="442" type="line"/>
      <point x="210" y="280"/>
      <point x="210" y="150"/>
    </contour>
    <contour>
      <point x="1504" y="0" type="curve"/>
      <point x="1564" y="0" type="line"/>
      <point x="1564" y="150"/>
      <point x="1564" y="288"/>
      <point x="1564" y="442" type="curve"/>
      <point x="1564" y="518"/>
      <point x="1564" y="566"/>
      <point x="1564" y="652" type="curve" smooth="yes"/>
      <point x="1564" y="872"/>
      <point x="1492" y="1008"/>
      <point x="1276" y="1008" type="curve" smooth="yes"/>
      <point x="1098" y="1008"/>
      <point x="982" y="886"/>
      <point x="916" y="798" type="curve"/>
      <point x="904" y="798" type="line"/>
      <point x="912" y="690" type="line"/>
      <point x="996" y="830"/>
      <point x="1110" y="944"/>
      <point x="1272" y="944" type="curve" smooth="yes"/>
      <point x="1448" y="944"/>
      <point x="1504" y="844"/>
      <point x="1504" y="652" type="curve"/>
      <point x="1504" y="442" type="line"/>
      <point x="1504" y="288"/>
      <point x="1504" y="150"/>
    </contour>
  </outline>
</glyph>
<glyph name="n" format="2">
  <advance width="1138"/>
  <unicode hex="006E"/>
  <anchor x="586" y="0" name="bottom"/>
  <anchor x="586" y="988" name="top"/>
  <outline>
    <contour>
      <point x="210" y="0" type="curve"/>
      <point x="270" y="0" type="line"/>
      <point x="270" y="150"/>
      <point x="270" y="280"/>
      <point x="270" y="442" type="curve"/>
      <point x="270" y="690" type="line"/>
      <point x="360" y="830"/>
      <point x="480" y="944"/>
      <point x="652" y="944" type="curve" smooth="yes"/>
      <point x="838" y="944"/>
      <point x="898" y="844"/>
      <point x="898" y="652" type="curve"/>
      <point x="898" y="442" type="line"/>
      <point x="898" y="288"/>
      <point x="898" y="150"/>
      <point x="898" y="0" type="curve"/>
      <point x="958" y="0" type="line"/>
      <point x="958" y="150"/>
      <point x="958" y="288"/>
      <point x="958" y="442" type="curve"/>
      <point x="958" y="518"/>
      <point x="958" y="566"/>
      <point x="958" y="652" type="curve" smooth="yes"/>
      <point x="958" y="880"/>
      <point x="874" y="1008"/>
      <point x="654" y="1008" type="curve" smooth="yes"/>
      <point x="466" y="1008"/>
      <point x="342" y="886"/>
      <point x="282" y="802" type="curve"/>
      <point x="270" y="802" type="line"/>
      <point x="270" y="994" type="line"/>
      <point x="210" y="988" type="line"/>
      <point x="210" y="840"/>
      <point x="210" y="684"/>
      <point x="210" y="542" type="curve"/>
      <point x="210" y="442" type="line"/>
      <point x="210" y="280"/>
      <point x="210" y="150"/>
    </contour>
  </outline>
</glyph>
<glyph name="o" format="2">
  <advance width="1194"/>
  <unicode hex="006F"/>
  <anchor x="596" y="0" name="bottom"/>
  <anchor x="596" y="494" name="center"/>
  <anchor x="726" y="0" name="ogonek"/>
  <anchor x="596" y="988" name="top"/>
  <anchor x="1076" y="988" name="topright"/>
  <outline>
    <contour>
      <point x="600" y="-18" type="curve" smooth="yes"/>
      <point x="882" y="-18"/>
      <point x="1070" y="212"/>
      <point x="1070" y="502" type="curve" smooth="yes"/>
      <point x="1070" y="790"/>
      <point x="888" y="1008"/>
      <point x="600" y="1008" type="curve" smooth="yes"/>
      <point x="320" y="1008"/>
      <point x="124" y="798"/>
      <point x="124" y="502" type="curve" smooth="yes"/>
      <point x="124" y="226"/>
      <point x="302" y="-18"/>
    </contour>
    <contour>
      <point x="600" y="46" type="curve"/>
      <point x="322" y="46"/>
      <point x="186" y="268"/>
      <point x="186" y="502" type="curve" smooth="yes"/>
      <point x="186" y="748"/>
      <point x="330" y="944"/>
      <point x="600" y="944" type="curve"/>
      <point x="852" y="944"/>
      <point x="1008" y="764"/>
      <point x="1008" y="502" type="curve" smooth="yes"/>
      <point x="1008" y="268"/>
      <point x="874" y="46"/>
    </contour>
  </outline>
</glyph>
<glyph name="z" format="2">
  <advance width="964"/>
  <unicode hex="007A"/>
  <guideline x="218" y="249" angle="232.6668"/>
  <guideline x="260" y="255" angle="52.6668"/>
  <anchor x="478" y="0" name="bottom"/>
  <anchor x="478" y="494" name="center"/>
  <anchor x="478" y="988" name="top"/>
  <outline>
    <contour>
      <point x="88" y="0" type="line"/>
      <point x="884" y="0" type="line"/>
      <point x="884" y="56" type="line"/>
      <point x="736" y="56"/>
      <point x="536" y="56"/>
      <point x="416" y="56" type="curve"/>
      <point x="150" y="56" type="line"/>
      <point x="160" y="38" type="line"/>
      <point x="520" y="510" type="line"/>
      <point x="628" y="652"/>
      <point x="766" y="832"/>
      <point x="850" y="942" type="curve"/>
      <point x="850" y="988" type="line"/>
      <point x="88" y="988" type="line"/>
      <point x="88" y="932" type="line"/>
      <point x="248" y="932"/>
      <point x="450" y="932"/>
      <point x="568" y="932" type="curve"/>
      <point x="808" y="932" type="line"/>
      <point x="794" y="968" type="line"/>
      <point x="436" y="498" type="line"/>
      <point x="334" y="364"/>
      <point x="212" y="204"/>
      <point x="88" y="42" type="curve"/>
    </contour>
  </outline>
</glyph>
<glyph name="bar" format="2">
  <advance width="500"/>
  <unicode hex="007C"/>
  <outline>
    <contour>
      <point x="220" y="-308" type="curve"/>
      <point x="280" y="-308" type="line"/>
      <point x="280" y="-72"/>
      <point x="280" y="134"/>
      <point x="280" y="350" type="curve"/>
      <point x="280" y="914" type="line"/>
      <point x="280" y="1130"/>
      <point x="280" y="1336"/>
      <point x="280" y="1572" type="curve"/>
      <point x="220" y="1572" type="line"/>
      <point x="220" y="1336"/>
      <point x="220" y="1130"/>
      <point x="220" y="914" type="curve"/>
      <point x="220" y="350" type="line"/>
      <point x="220" y="134"/>
      <point x="220" y="-72"/>
    </contour>
  </outline>
</glyph>
<glyph name="asciitilde" format="2">
  <advance width="1120"/>
  <unicode hex="007E"/>
  <outline>
    <contour>
      <point x="782" y="466" type="curve" smooth="yes"/>
      <point x="892" y="466"/>
      <point x="980" y="544"/>
      <point x="980" y="688" type="curve"/>
      <point x="922" y="688" type="line"/>
      <point x="922" y="576"/>
      <point x="858" y="528"/>
      <point x="774" y="528" type="curve"/>
      <point x="632" y="528"/>
      <point x="514" y="714"/>
      <point x="340" y="714" type="curve" smooth="yes"/>
      <point x="230" y="714"/>
      <point x="140" y="636"/>
      <point x="140" y="492" type="curve"/>
      <point x="198" y="492" type="line"/>
      <point x="198" y="604"/>
      <point x="264" y="652"/>
      <point x="348" y="652" type="curve"/>
      <point x="490" y="652"/>
      <point x="608" y="466"/>
    </contour>
  </outline>
</glyph>
<glyph name="currency" format="2">
  <advance width="1200"/>
  <unicode hex="00A4"/>
  <outline>
    <contour>
      <point x="596" y="260" type="curve" smooth="yes"/>
      <point x="812" y="260"/>
      <point x="974" y="408"/>
      <point x="974" y="640" type="curve" smooth="yes"/>
      <point x="974" y="866"/>
      <point x="814" y="1022"/>
      <point x="600" y="1022" type="curve" smooth="yes"/>
      <point x="382" y="1022"/>
      <point x="222" y="864"/>
      <point x="222" y="640" type="curve" smooth="yes"/>
      <point x="222" y="408"/>
      <point x="382" y="260"/>
    </contour>
    <contour>
      <point x="154" y="154" type="line"/>
      <point x="236" y="236"/>
      <point x="314" y="314"/>
      <point x="380" y="380" type="curve"/>
      <point x="338" y="422" type="line"/>
      <point x="272" y="356"/>
      <point x="194" y="278"/>
      <point x="112" y="196" type="curve"/>
    </contour>
    <contour>
      <point x="596" y="324" type="curve"/>
      <point x="424" y="324"/>
      <point x="286" y="424"/>
      <point x="286" y="640" type="curve" smooth="yes"/>
      <point x="286" y="844"/>
      <point x="426" y="958"/>
      <point x="600" y="958" type="curve"/>
      <point x="772" y="958"/>
      <point x="910" y="844"/>
      <point x="910" y="640" type="curve" smooth="yes"/>
      <point x="910" y="424"/>
      <point x="772" y="324"/>
    </contour>
    <contour>
      <point x="338" y="862" type="curve"/>
      <point x="380" y="904" type="line"/>
      <point x="314" y="970"/>
      <point x="236" y="1048"/>
      <point x="154" y="1130" type="curve"/>
      <point x="112" y="1088" type="line"/>
      <point x="194" y="1006"/>
      <point x="272" y="928"/>
    </contour>
    <contour>
      <point x="1046" y="154" type="curve"/>
      <point x="1088" y="196" type="line"/>
      <point x="1006" y="278"/>
      <point x="928" y="356"/>
      <point x="862" y="422" type="curve"/>
      <point x="820" y="380" type="line"/>
      <point x="886" y="314"/>
      <point x="964" y="236"/>
    </contour>
    <contour>
      <point x="862" y="862" type="line"/>
      <point x="928" y="928"/>
      <point x="1006" y="1006"/>
      <point x="1088" y="1088" type="curve"/>
      <point x="1046" y="1130" type="line"/>
      <point x="964" y="1048"/>
      <point x="886" y="970"/>
      <point x="820" y="904" type="curve"/>
    </contour>
  </outline>
</glyph>
<glyph name="yen" format="2">
  <advance width="1206"/>
  <unicode hex="00A5"/>
  <outline>
    <contour>
      <point x="574" y="576" type="line"/>
      <point x="632" y="576" type="line"/>
      <point x="940" y="1056" type="line"/>
      <point x="1004" y="1156"/>
      <point x="1076" y="1268"/>
      <point x="1140" y="1368" type="curve"/>
      <point x="1066" y="1368" type="line"/>
      <point x="938" y="1168"/>
      <point x="874" y="1068"/>
      <point x="774" y="912" type="curve"/>
      <point x="608" y="652" type="line"/>
      <point x="596" y="652" type="line"/>
      <point x="432" y="910" type="line"/>
      <point x="330" y="1070"/>
      <point x="270" y="1164"/>
      <point x="140" y="1368" type="curve"/>
      <point x="66" y="1368" type="line"/>
      <point x="166" y="1212"/>
      <point x="208" y="1146"/>
      <point x="266" y="1056" type="curve"/>
    </contour>
    <contour>
      <point x="572" y="0" type="curve"/>
      <point x="634" y="0" type="line"/>
      <point x="634" y="156"/>
      <point x="634" y="290"/>
      <point x="634" y="456" type="curve"/>
      <point x="634" y="626" type="line"/>
      <point x="572" y="626" type="line"/>
      <point x="572" y="456" type="line"/>
      <point x="572" y="290"/>
      <point x="572" y="156"/>
    </contour>
    <contour>
      <point x="174" y="316" type="line"/>
      <point x="290" y="316"/>
      <point x="400" y="316"/>
      <point x="494" y="316" type="curve"/>
      <point x="714" y="316" type="line"/>
      <point x="808" y="316"/>
      <point x="918" y="316"/>
      <point x="1034" y="316" type="curve"/>
      <point x="1034" y="372" type="line"/>
      <point x="918" y="372"/>
      <point x="808" y="372"/>
      <point x="714" y="372" type="curve"/>
      <point x="494" y="372" type="line"/>
      <point x="400" y="372"/>
      <point x="290" y="372"/>
      <point x="174" y="372" type="curve"/>
    </contour>
    <contour>
      <point x="174" y="576" type="line"/>
      <point x="290" y="576"/>
      <point x="400" y="576"/>
      <point x="494" y="576" type="curve"/>
      <point x="714" y="576" type="line"/>
      <point x="808" y="576"/>
      <point x="918" y="576"/>
      <point x="1034" y="576" type="curve"/>
      <point x="1034" y="632" type="line"/>
      <point x="918" y="632"/>
      <point x="808" y="632"/>
      <point x="714" y="632" type="curve"/>
      <point x="494" y="632" type="line"/>
      <point x="400" y="632"/>
      <point x="290" y="632"/>
      <point x="174" y="632" type="curve"/>
    </contour>
  </outline>
</glyph>
<glyph name="brokenbar" format="2">
  <advance width="500"/>
  <unicode hex="00A6"/>
  <outline>
    <contour>
      <point x="220" y="732" type="line"/>
      <point x="280" y="732" type="line"/>
      <point x="280" y="914" type="line"/>
      <point x="280" y="1130"/>
      <point x="280" y="1336"/>
      <point x="280" y="1572" type="curve"/>
      <point x="220" y="1572" type="line"/>
      <point x="220" y="1336"/>
      <point x="220" y="1130"/>
      <point x="220" y="914" type="curve"/>
    </contour>
    <contour>
      <point x="220" y="-308" type="curve"/>
      <point x="280" y="-308" type="line"/>
      <point x="280" y="-72"/>
      <point x="280" y="134"/>
      <point x="280" y="350" type="curve"/>
      <point x="280" y="532" type="line"/>
      <point x="220" y="532" type="line"/>
      <point x="220" y="350" type="line"/>
      <point x="220" y="134"/>
      <point x="220" y="-72"/>
    </contour>
  </outline>
</glyph>
<glyph name="degree" format="2">
  <advance width="908"/>
  <unicode hex="00B0"/>
  <outline>
    <contour>
      <point x="454" y="656" type="curve" smooth="yes"/>
      <point x="670" y="656"/>
      <point x="828" y="802"/>
      <point x="828" y="1020" type="curve" smooth="yes"/>
      <point x="828" y="1232"/>
      <point x="670" y="1392"/>
      <point x="456" y="1392" type="curve" smooth="yes"/>
      <point x="240" y="1392"/>
      <point x="80" y="1232"/>
      <point x="80" y="1020" type="curve" smooth="yes"/>
      <point x="80" y="802"/>
      <point x="240" y="656"/>
    </contour>
    <contour>
      <point x="454" y="718" type="curve"/>
      <point x="264" y="718"/>
      <point x="142" y="832"/>
      <point x="142" y="1020" type="curve" smooth="yes"/>
      <point x="142" y="1202"/>
      <point x="264" y="1330"/>
      <point x="456" y="1330" type="curve"/>
      <point x="646" y="1330"/>
      <point x="766" y="1202"/>
      <point x="766" y="1020" type="curve" smooth="yes"/>
      <point x="766" y="832"/>
      <point x="646" y="718"/>
    </contour>
  </outline>
</glyph>
<glyph name="plusminus" format="2">
  <advance width="1120"/>
  <unicode hex="00B1"/>
  <outline>
    <contour>
      <point x="140" y="0" type="line"/>
      <point x="256" y="0"/>
      <point x="366" y="0"/>
      <point x="460" y="0" type="curve"/>
      <point x="660" y="0" type="line"/>
      <point x="754" y="0"/>
      <point x="864" y="0"/>
      <point x="980" y="0" type="curve"/>
      <point x="980" y="60" type="line"/>
      <point x="864" y="60"/>
      <point x="754" y="60"/>
      <point x="660" y="60" type="curve"/>
      <point x="460" y="60" type="line"/>
      <point x="366" y="60"/>
      <point x="256" y="60"/>
      <point x="140" y="60" type="curve"/>
    </contour>
    <contour>
      <point x="140" y="706" type="line"/>
      <point x="256" y="706"/>
      <point x="366" y="706"/>
      <point x="460" y="706" type="curve"/>
      <point x="660" y="706" type="line"/>
      <point x="754" y="706"/>
      <point x="864" y="706"/>
      <point x="980" y="706" type="curve"/>
      <point x="980" y="766" type="line"/>
      <point x="864" y="766"/>
      <point x="754" y="766"/>
      <point x="660" y="766" type="curve"/>
      <point x="460" y="766" type="line"/>
      <point x="366" y="766"/>
      <point x="256" y="766"/>
      <point x="140" y="766" type="curve"/>
    </contour>
    <contour>
      <point x="530" y="276" type="curve"/>
      <point x="590" y="276" type="line"/>
      <point x="590" y="392"/>
      <point x="590" y="502"/>
      <point x="590" y="596" type="curve"/>
      <point x="590" y="876" type="line"/>
      <point x="590" y="970"/>
      <point x="590" y="1080"/>
      <point x="590" y="1196" type="curve"/>
      <point x="530" y="1196" type="line"/>
      <point x="530" y="1080"/>
      <point x="530" y="970"/>
      <point x="530" y="876" type="curve"/>
      <point x="530" y="596" type="line"/>
      <point x="530" y="502"/>
      <point x="530" y="392"/>
    </contour>
  </outline>
</glyph>
<glyph name="micro" format="2">
  <advance width="1098"/>
  <unicode hex="00B5"/>
  <outline>
    <contour>
      <point x="180" y="-388" type="curve"/>
      <point x="240" y="-384" type="line"/>
      <point x="240" y="-234"/>
      <point x="240" y="-104"/>
      <point x="240" y="58" type="curve" smooth="yes"/>
      <point x="240" y="98" type="line"/>
      <point x="234" y="98" type="line"/>
      <point x="282" y="22"/>
      <point x="360" y="-18"/>
      <point x="484" y="-18" type="curve" smooth="yes"/>
      <point x="662" y="-18"/>
      <point x="788" y="106"/>
      <point x="848" y="190" type="curve"/>
      <point x="860" y="190" type="line"/>
      <point x="860" y="0" type="line"/>
      <point x="918" y="0" type="line"/>
      <point x="918" y="106"/>
      <point x="918" y="194"/>
      <point x="918" y="274" type="curve"/>
      <point x="918" y="542" type="line"/>
      <point x="918" y="704"/>
      <point x="918" y="838"/>
      <point x="918" y="988" type="curve"/>
      <point x="858" y="988" type="line"/>
      <point x="858" y="838"/>
      <point x="858" y="704"/>
      <point x="858" y="542" type="curve"/>
      <point x="858" y="300" type="line"/>
      <point x="768" y="160"/>
      <point x="648" y="46"/>
      <point x="486" y="46" type="curve" smooth="yes"/>
      <point x="300" y="46"/>
      <point x="240" y="146"/>
      <point x="240" y="338" type="curve"/>
      <point x="240" y="542" type="line"/>
      <point x="240" y="704"/>
      <point x="240" y="842"/>
      <point x="240" y="992" type="curve"/>
      <point x="180" y="988" type="line"/>
      <point x="180" y="838"/>
      <point x="180" y="704"/>
      <point x="180" y="542" type="curve"/>
      <point x="180" y="58" type="line"/>
      <point x="180" y="-104"/>
      <point x="180" y="-238"/>
    </contour>
  </outline>
</glyph>
<glyph name="ordmasculine" format="2">
  <advance width="904"/>
  <unicode hex="00BA"/>
  <outline>
    <contour>
      <point x="454" y="670" type="curve" smooth="yes"/>
      <point x="672" y="670"/>
      <point x="814" y="846"/>
      <point x="814" y="1066" type="curve" smooth="yes"/>
      <point x="814" y="1284"/>
      <point x="676" y="1450"/>
      <point x="454" y="1450" type="curve" smooth="yes"/>
      <point x="238" y="1450"/>
      <point x="90" y="1290"/>
      <point x="90" y="1066" type="curve" smooth="yes"/>
      <point x="90" y="856"/>
      <point x="226" y="670"/>
    </contour>
    <contour>
      <point x="454" y="730" type="curve"/>
      <point x="250" y="730"/>
      <point x="150" y="894"/>
      <point x="150" y="1066" type="curve" smooth="yes"/>
      <point x="150" y="1246"/>
      <point x="256" y="1390"/>
      <point x="454" y="1390" type="curve"/>
      <point x="640" y="1390"/>
      <point x="754" y="1258"/>
      <point x="754" y="1066" type="curve" smooth="yes"/>
      <point x="754" y="892"/>
      <point x="656" y="730"/>
    </contour>
  </outline>
</glyph>
<glyph name="Oslash" format="2">
  <advance width="1638"/>
  <unicode hex="00D8"/>
  <anchor x="818" y="0" name="bottom"/>
  <anchor x="818" y="714" name="center"/>
  <anchor x="988" y="0" name="ogonek"/>
  <anchor x="818" y="1426" name="top"/>
  <anchor x="54" y="1426" name="topleft"/>
  <anchor x="1444" y="1426" name="topright"/>
  <outline>
    <contour>
      <point x="826" y="-18" type="curve" smooth="yes"/>
      <point x="1250" y="-18"/>
      <point x="1518" y="296"/>
      <point x="1518" y="716" type="curve" smooth="yes"/>
      <point x="1518" y="1124"/>
      <point x="1262" y="1450"/>
      <point x="822" y="1450" type="curve" smooth="yes"/>
      <point x="390" y="1450"/>
      <point x="120" y="1130"/>
      <point x="120" y="716" type="curve" smooth="yes"/>
      <point x="120" y="316"/>
      <point x="366" y="-18"/>
    </contour>
    <contour>
      <point x="822" y="48" type="curve"/>
      <point x="380" y="48"/>
      <point x="186" y="364"/>
      <point x="186" y="716" type="curve" smooth="yes"/>
      <point x="186" y="1064"/>
      <point x="388" y="1384"/>
      <point x="822" y="1384" type="curve"/>
      <point x="1242" y="1384"/>
      <point x="1452" y="1088"/>
      <point x="1452" y="716" type="curve" smooth="yes"/>
      <point x="1452" y="372"/>
      <point x="1264" y="48"/>
    </contour>
    <contour>
      <point x="244" y="-112" type="line"/>
      <point x="376" y="60"/>
      <point x="498" y="218"/>
      <point x="644" y="406" type="curve"/>
      <point x="1038" y="926" type="line"/>
      <point x="1184" y="1116"/>
      <point x="1302" y="1270"/>
      <point x="1438" y="1448" type="curve"/>
      <point x="1388" y="1486" type="line"/>
      <point x="1254" y="1310"/>
      <point x="1134" y="1154"/>
      <point x="986" y="960" type="curve"/>
      <point x="596" y="446" type="line"/>
      <point x="452" y="258"/>
      <point x="336" y="110"/>
      <point x="196" y="-72" type="curve"/>
    </contour>
  </outline>
</glyph>
<glyph name="ae" format="2">
  <advance width="1646"/>
  <unicode hex="00E6"/>
  <anchor x="804" y="0" name="bottom"/>
  <anchor x="804" y="988" name="top"/>
  <outline>
    <contour>
      <point x="1236" y="-18" type="curve" smooth="yes"/>
      <point x="1354" y="-18"/>
      <point x="1468" y="8"/>
      <point x="1544" y="54" type="curve"/>
      <point x="1538" y="122" type="line"/>
      <point x="1446" y="68"/>
      <point x="1342" y="46"/>
      <point x="1236" y="46" type="curve" smooth="yes"/>
      <point x="942" y="46"/>
      <point x="824" y="222"/>
      <point x="824" y="498" type="curve"/>
      <point x="824" y="502" type="line"/>
      <point x="824" y="758"/>
      <point x="940" y="944"/>
      <point x="1184" y="944" type="curve"/>
      <point x="1376" y="944"/>
      <point x="1504" y="832"/>
      <point x="1504" y="590" type="curve" smooth="yes"/>
      <point x="1504" y="570"/>
      <point x="1504" y="550"/>
      <point x="1502" y="528" type="curve"/>
      <point x="1556" y="474" type="line"/>
      <point x="1562" y="512"/>
      <point x="1564" y="548"/>
      <point x="1564" y="594" type="curve" smooth="yes"/>
      <point x="1564" y="854"/>
      <point x="1416" y="1008"/>
      <point x="1182" y="1008" type="curve" smooth="yes"/>
      <point x="920" y="1008"/>
      <point x="764" y="796"/>
      <point x="764" y="502" type="curve" smooth="yes"/>
      <point x="764" y="202"/>
      <point x="904" y="-18"/>
    </contour>
    <contour>
      <point x="404" y="44" type="curve" smooth="yes"/>
      <point x="264" y="44"/>
      <point x="164" y="104"/>
      <point x="164" y="256" type="curve" smooth="yes"/>
      <point x="164" y="410"/>
      <point x="292" y="468"/>
      <point x="442" y="496" type="curve" smooth="yes"/>
      <point x="668" y="538"/>
      <point x="726" y="560"/>
      <point x="764" y="578" type="curve"/>
      <point x="762" y="282" type="line"/>
      <point x="682" y="112"/>
      <point x="534" y="44"/>
    </contour>
    <contour>
      <point x="404" y="-18" type="curve" smooth="yes"/>
      <point x="566" y="-18"/>
      <point x="734" y="76"/>
      <point x="822" y="262" type="curve"/>
      <point x="800" y="500" type="line"/>
      <point x="822" y="678" type="line"/>
      <point x="822" y="910"/>
      <point x="696" y="1008"/>
      <point x="502" y="1008" type="curve" smooth="yes"/>
      <point x="384" y="1008"/>
      <point x="240" y="972"/>
      <point x="144" y="930" type="curve"/>
      <point x="150" y="864" type="line"/>
      <point x="302" y="926"/>
      <point x="410" y="944"/>
      <point x="502" y="944" type="curve" smooth="yes"/>
      <point x="648" y="944"/>
      <point x="774" y="900"/>
      <point x="764" y="624" type="curve"/>
      <point x="418" y="552" type="line" smooth="yes"/>
      <point x="280" y="524"/>
      <point x="102" y="462"/>
      <point x="102" y="254" type="curve" smooth="yes"/>
      <point x="102" y="92"/>
      <point x="212" y="-18"/>
    </contour>
    <contour>
      <point x="794" y="474" type="line"/>
      <point x="1556" y="474" type="line"/>
      <point x="1556" y="536" type="line"/>
      <point x="1512" y="534" type="line"/>
      <point x="794" y="534" type="line"/>
    </contour>
  </outline>
</glyph>
<glyph name="eth" format="2">
  <advance width="1176"/>
  <unicode hex="00F0"/>
  <outline>
    <contour>
      <point x="592" y="-18" type="curve" smooth="yes"/>
      <point x="888" y="-18"/>
      <point x="1052" y="218"/>
      <point x="1052" y="604" type="curve" smooth="yes"/>
      <point x="1052" y="898"/>
      <point x="952" y="1110"/>
      <point x="788" y="1290" type="curve"/>
      <point x="716" y="1370"/>
      <point x="632" y="1438"/>
      <point x="540" y="1496" type="curve"/>
      <point x="486" y="1462" type="line"/>
      <point x="576" y="1404"/>
      <point x="656" y="1340"/>
      <point x="722" y="1270" type="curve"/>
      <point x="898" y="1090"/>
      <point x="990" y="872"/>
      <point x="990" y="602" type="curve" smooth="yes"/>
      <point x="990" y="256"/>
      <point x="860" y="46"/>
      <point x="592" y="46" type="curve"/>
      <point x="320" y="46"/>
      <point x="186" y="264"/>
      <point x="186" y="488" type="curve" smooth="yes"/>
      <point x="186" y="710"/>
      <point x="316" y="910"/>
      <point x="584" y="910" type="curve"/>
      <point x="684" y="910"/>
      <point x="846" y="884"/>
      <point x="998" y="694" type="curve"/>
      <point x="998" y="738"/>
      <point x="998" y="784"/>
      <point x="998" y="828" type="curve"/>
      <point x="954" y="826" type="line"/>
      <point x="832" y="936"/>
      <point x="702" y="974"/>
      <point x="584" y="974" type="curve" smooth="yes"/>
      <point x="306" y="974"/>
      <point x="124" y="760"/>
      <point x="124" y="488" type="curve" smooth="yes"/>
      <point x="124" y="222"/>
      <point x="300" y="-18"/>
    </contour>
    <contour>
      <point x="368" y="1150" type="line"/>
      <point x="480" y="1182"/>
      <point x="586" y="1212"/>
      <point x="670" y="1236" type="curve"/>
      <point x="760" y="1262" type="line"/>
      <point x="844" y="1286"/>
      <point x="948" y="1316"/>
      <point x="1060" y="1348" type="curve"/>
      <point x="1046" y="1402" type="line"/>
      <point x="934" y="1370"/>
      <point x="828" y="1340"/>
      <point x="744" y="1316" type="curve"/>
      <point x="654" y="1290" type="line"/>
      <point x="570" y="1266"/>
      <point x="468" y="1236"/>
      <point x="354" y="1204" type="curve"/>
    </contour>
  </outline>
</glyph>
<glyph name="divide" format="2">
  <advance width="1120"/>
  <unicode hex="00F7"/>
  <outline>
    <contour>
      <point x="140" y="560" type="line"/>
      <point x="256" y="560"/>
      <point x="366" y="560"/>
      <point x="460" y="560" type="curve"/>
      <point x="660" y="560" type="line"/>
      <point x="754" y="560"/>
      <point x="864" y="560"/>
      <point x="980" y="560" type="curve"/>
      <point x="980" y="620" type="line"/>
      <point x="864" y="620"/>
      <point x="754" y="620"/>
      <point x="660" y="620" type="curve"/>
      <point x="460" y="620" type="line"/>
      <point x="366" y="620"/>
      <point x="256" y="620"/>
      <point x="140" y="620" type="curve"/>
    </contour>
    <contour>
      <point x="558" y="160" type="curve" smooth="yes"/>
      <point x="614" y="160"/>
      <point x="648" y="194"/>
      <point x="648" y="250" type="curve" smooth="yes"/>
      <point x="648" y="308"/>
      <point x="614" y="340"/>
      <point x="558" y="340" type="curve" smooth="yes"/>
      <point x="504" y="340"/>
      <point x="468" y="308"/>
      <point x="468" y="250" type="curve" smooth="yes"/>
      <point x="468" y="194"/>
      <point x="504" y="160"/>
    </contour>
    <contour>
      <point x="558" y="836" type="curve" smooth="yes"/>
      <point x="614" y="836"/>
      <point x="648" y="870"/>
      <point x="648" y="926" type="curve" smooth="yes"/>
      <point x="648" y="984"/>
      <point x="614" y="1016"/>
      <point x="558" y="1016" type="curve" smooth="yes"/>
      <point x="504" y="1016"/>
      <point x="468" y="984"/>
      <point x="468" y="926" type="curve" smooth="yes"/>
      <point x="468" y="870"/>
      <point x="504" y="836"/>
    </contour>
  </outline>
</glyph>
<glyph name="oslash" format="2">
  <advance width="1194"/>
  <unicode hex="00F8"/>
  <anchor x="596" y="988" name="top"/>
  <outline>
    <contour>
      <point x="600" y="-18" type="curve" smooth="yes"/>
      <point x="882" y="-18"/>
      <point x="1070" y="212"/>
      <point x="1070" y="502" type="curve" smooth="yes"/>
      <point x="1070" y="790"/>
      <point x="888" y="1008"/>
      <point x="600" y="1008" type="curve" smooth="yes"/>
      <point x="320" y="1008"/>
      <point x="124" y="798"/>
      <point x="124" y="502" type="curve" smooth="yes"/>
      <point x="124" y="226"/>
      <point x="302" y="-18"/>
    </contour>
    <contour>
      <point x="600" y="46" type="curve"/>
      <point x="322" y="46"/>
      <point x="186" y="268"/>
      <point x="186" y="502" type="curve" smooth="yes"/>
      <point x="186" y="748"/>
      <point x="330" y="944"/>
      <point x="600" y="944" type="curve"/>
      <point x="852" y="944"/>
      <point x="1008" y="764"/>
      <point x="1008" y="502" type="curve" smooth="yes"/>
      <point x="1008" y="268"/>
      <point x="874" y="46"/>
    </contour>
    <contour>
      <point x="182" y="-112" type="line"/>
      <point x="280" y="16"/>
      <point x="366" y="128"/>
      <point x="472" y="266" type="curve"/>
      <point x="758" y="640" type="line"/>
      <point x="864" y="778"/>
      <point x="956" y="898"/>
      <point x="1054" y="1026" type="curve"/>
      <point x="1006" y="1060" type="line"/>
      <point x="910" y="934"/>
      <point x="824" y="822"/>
      <point x="714" y="678" type="curve"/>
      <point x="426" y="302" type="line"/>
      <point x="322" y="166"/>
      <point x="238" y="56"/>
      <point x="136" y="-78" type="curve"/>
    </contour>
  </outline>
</glyph>
<glyph name="thorn" format="2">
  <advance width="1182"/>
  <unicode hex="00FE"/>
  <outline>
    <contour>
      <point x="210" y="-388" type="curve"/>
      <point x="270" y="-384" type="line"/>
      <point x="270" y="-234"/>
      <point x="270" y="-104"/>
      <point x="270" y="58" type="curve"/>
      <point x="270" y="138" type="line"/>
      <point x="282" y="138" type="line"/>
      <point x="364" y="38"/>
      <point x="474" y="-18"/>
      <point x="616" y="-18" type="curve" smooth="yes"/>
      <point x="908" y="-18"/>
      <point x="1058" y="220"/>
      <point x="1058" y="498" type="curve" smooth="yes"/>
      <point x="1058" y="792"/>
      <point x="890" y="1008"/>
      <point x="612" y="1008" type="curve" smooth="yes"/>
      <point x="462" y="1008"/>
      <point x="340" y="936"/>
      <point x="282" y="870" type="curve"/>
      <point x="270" y="870" type="line"/>
      <point x="270" y="988" type="line"/>
      <point x="270" y="1158"/>
      <point x="270" y="1316"/>
      <point x="270" y="1478" type="curve"/>
      <point x="210" y="1462" type="line"/>
      <point x="210" y="1316"/>
      <point x="210" y="1158"/>
      <point x="210" y="988" type="curve"/>
      <point x="210" y="58" type="line"/>
      <point x="210" y="-104"/>
      <point x="210" y="-238"/>
    </contour>
    <contour>
      <point x="616" y="46" type="curve"/>
      <point x="460" y="46"/>
      <point x="350" y="120"/>
      <point x="270" y="248" type="curve"/>
      <point x="270" y="768" type="line"/>
      <point x="350" y="886"/>
      <point x="478" y="944"/>
      <point x="612" y="944" type="curve"/>
      <point x="874" y="944"/>
      <point x="996" y="744"/>
      <point x="996" y="498" type="curve" smooth="yes"/>
      <point x="996" y="262"/>
      <point x="884" y="46"/>
    </contour>
  </outline>
</glyph>
<glyph name="Lslash" format="2">
  <advance width="1132"/>
  <unicode hex="0141"/>
  <outline>
    <contour>
      <point x="220" y="0" type="curve"/>
      <point x="284" y="0" type="line"/>
      <point x="284" y="8" type="line"/>
      <point x="284" y="170"/>
      <point x="284" y="310"/>
      <point x="284" y="484" type="curve"/>
      <point x="284" y="950" type="line"/>
      <point x="284" y="1124"/>
      <point x="284" y="1264"/>
      <point x="284" y="1426" type="curve"/>
      <point x="220" y="1426" type="line"/>
      <point x="220" y="1264"/>
      <point x="220" y="1124"/>
      <point x="220" y="950" type="curve"/>
      <point x="220" y="476" type="line"/>
      <point x="220" y="302"/>
      <point x="220" y="162"/>
    </contour>
    <contour>
      <point x="0" y="590" type="line"/>
      <point x="122" y="626"/>
      <point x="236" y="660"/>
      <point x="336" y="690" type="curve"/>
      <point x="430" y="718" type="line"/>
      <point x="530" y="748"/>
      <point x="644" y="782"/>
      <point x="766" y="818" type="curve"/>
      <point x="750" y="876" type="line"/>
      <point x="628" y="840"/>
      <point x="514" y="806"/>
      <point x="412" y="776" type="curve"/>
      <point x="320" y="748" type="line"/>
      <point x="218" y="718"/>
      <point x="104" y="684"/>
      <point x="-18" y="648" type="curve"/>
    </contour>
    <contour>
      <point x="272" y="0" type="line"/>
      <point x="1056" y="0" type="line"/>
      <point x="1056" y="62" type="line"/>
      <point x="888" y="62"/>
      <point x="746" y="62"/>
      <point x="500" y="62" type="curve"/>
      <point x="272" y="62" type="line"/>
    </contour>
  </outline>
</glyph>
<glyph name="lslash" format="2">
  <advance width="520"/>
  <unicode hex="0142"/>
  <outline>
    <contour>
      <point x="0" y="576" type="line"/>
      <point x="88" y="602"/>
      <point x="164" y="624"/>
      <point x="238" y="646" type="curve"/>
      <point x="298" y="664" type="line"/>
      <point x="366" y="684"/>
      <point x="448" y="708"/>
      <point x="536" y="734" type="curve"/>
      <point x="520" y="788" type="line"/>
      <point x="432" y="762"/>
      <point x="356" y="740"/>
      <point x="282" y="718" type="curve"/>
      <point x="222" y="700" type="line"/>
      <point x="148" y="678"/>
      <point x="72" y="656"/>
      <point x="-16" y="630" type="curve"/>
    </contour>
    <contour>
      <point x="230" y="0" type="curve"/>
      <point x="290" y="0" type="line"/>
      <point x="290" y="150"/>
      <point x="290" y="280"/>
      <point x="290" y="442" type="curve"/>
      <point x="290" y="988" type="line"/>
      <point x="290" y="1158"/>
      <point x="290" y="1314"/>
      <point x="290" y="1478" type="curve"/>
      <point x="230" y="1462" type="line"/>
      <point x="230" y="1318"/>
      <point x="230" y="1158"/>
      <point x="230" y="988" type="curve"/>
      <point x="230" y="442" type="line"/>
      <point x="230" y="280"/>
      <point x="230" y="150"/>
    </contour>
  </outline>
</glyph>
<glyph name="OE" format="2">
  <advance width="2194"/>
  <unicode hex="0152"/>
  <anchor x="1098" y="0" name="bottom"/>
  <anchor x="1098" y="1426" name="top"/>
  <outline>
    <contour>
      <point x="1232" y="0" type="curve"/>
      <point x="1296" y="0" type="line"/>
      <point x="1296" y="8" type="line"/>
      <point x="1296" y="170"/>
      <point x="1296" y="310"/>
      <point x="1296" y="484" type="curve"/>
      <point x="1296" y="944" type="line"/>
      <point x="1296" y="1118"/>
      <point x="1296" y="1258"/>
      <point x="1296" y="1420" type="curve"/>
      <point x="1296" y="1426" type="line"/>
      <point x="1232" y="1426" type="line"/>
      <point x="1232" y="1264"/>
      <point x="1232" y="1124"/>
      <point x="1232" y="950" type="curve"/>
      <point x="1232" y="476" type="line"/>
      <point x="1232" y="302"/>
      <point x="1232" y="162"/>
    </contour>
    <contour>
      <point x="1284" y="0" type="line"/>
      <point x="2068" y="0" type="line"/>
      <point x="2068" y="62" type="line"/>
      <point x="1914" y="62"/>
      <point x="1750" y="62"/>
      <point x="1564" y="62" type="curve"/>
      <point x="1284" y="62" type="line"/>
    </contour>
    <contour>
      <point x="1284" y="694" type="line"/>
      <point x="1572" y="694" type="line"/>
      <point x="1760" y="694"/>
      <point x="1886" y="694"/>
      <point x="2024" y="694" type="curve"/>
      <point x="2024" y="756" type="line"/>
      <point x="1894" y="756"/>
      <point x="1766" y="756"/>
      <point x="1574" y="756" type="curve"/>
      <point x="1284" y="756" type="line"/>
    </contour>
    <contour>
      <point x="1284" y="1364" type="line"/>
      <point x="1556" y="1364" type="line"/>
      <point x="1776" y="1364"/>
      <point x="1928" y="1364"/>
      <point x="2070" y="1364" type="curve"/>
      <point x="2070" y="1426" type="line"/>
      <point x="1284" y="1426" type="line"/>
    </contour>
    <contour>
      <point x="834" y="-18" type="curve" smooth="yes"/>
      <point x="982" y="-18"/>
      <point x="1134" y="14"/>
      <point x="1250" y="92" type="curve"/>
      <point x="1238" y="164" type="line"/>
      <point x="1118" y="82"/>
      <point x="978" y="48"/>
      <point x="830" y="48" type="curve"/>
      <point x="414" y="48"/>
      <point x="186" y="346"/>
      <point x="186" y="716" type="curve" smooth="yes"/>
      <point x="186" y="1120"/>
      <point x="450" y="1384"/>
      <point x="804" y="1384" type="curve"/>
      <point x="948" y="1384"/>
      <point x="1094" y="1346"/>
      <point x="1250" y="1258" type="curve"/>
      <point x="1260" y="1328" type="line"/>
      <point x="1168" y="1382"/>
      <point x="1004" y="1450"/>
      <point x="806" y="1450" type="curve" smooth="yes"/>
      <point x="404" y="1450"/>
      <point x="120" y="1152"/>
      <point x="120" y="718" type="curve" smooth="yes"/>
      <point x="120" y="306"/>
      <point x="380" y="-18"/>
    </contour>
  </outline>
</glyph>
<glyph name="ringhalfleft" format="2">
  <advance width="388"/>
  <unicode hex="02BF"/>
  <outline>
    <contour>
      <point x="316" y="1144" type="curve"/>
      <point x="316" y="1200" type="line"/>
      <point x="238" y="1200"/>
      <point x="178" y="1242"/>
      <point x="178" y="1330" type="curve" smooth="yes"/>
      <point x="178" y="1412"/>
      <point x="238" y="1460"/>
      <point x="318" y="1460" type="curve"/>
      <point x="318" y="1516" type="line"/>
      <point x="202" y="1516"/>
      <point x="120" y="1440"/>
      <point x="120" y="1330" type="curve" smooth="yes"/>
      <point x="120" y="1214"/>
      <point x="202" y="1144"/>
    </contour>
  </outline>
</glyph>
<glyph name="macroncomb" format="2">
  <unicode hex="0304"/>
  <anchor x="600" y="988" name="_top"/>
  <anchor x="600" y="1336" name="top"/>
  <outline>
    <contour>
      <point x="308" y="1300" type="line"/>
      <point x="396" y="1300"/>
      <point x="494" y="1300"/>
      <point x="600" y="1300" type="curve"/>
      <point x="706" y="1300"/>
      <point x="804" y="1300"/>
      <point x="892" y="1300" type="curve"/>
      <point x="892" y="1356" type="line"/>
      <point x="804" y="1356"/>
      <point x="706" y="1356"/>
      <point x="600" y="1356" type="curve"/>
      <point x="494" y="1356"/>
      <point x="396" y="1356"/>
      <point x="308" y="1356" type="curve"/>
    </contour>
  </outline>
</glyph>
<glyph name="dieresiscomb" format="2">
  <unicode hex="0308"/>
  <anchor x="598" y="988" name="_top"/>
  <anchor x="596" y="1350" name="top"/>
  <outline>
    <contour>
      <point x="796" y="1256" type="curve" smooth="yes"/>
      <point x="840" y="1256"/>
      <point x="868" y="1284"/>
      <point x="868" y="1338" type="curve" smooth="yes"/>
      <point x="868" y="1394"/>
      <point x="840" y="1422"/>
      <point x="798" y="1422" type="curve" smooth="yes"/>
      <point x="756" y="1422"/>
      <point x="726" y="1396"/>
      <point x="726" y="1338" type="curve" smooth="yes"/>
      <point x="726" y="1284"/>
      <point x="756" y="1256"/>
    </contour>
    <contour>
      <point x="396" y="1256" type="curve" smooth="yes"/>
      <point x="440" y="1256"/>
      <point x="468" y="1284"/>
      <point x="468" y="1338" type="curve" smooth="yes"/>
      <point x="468" y="1394"/>
      <point x="440" y="1422"/>
      <point x="398" y="1422" type="curve" smooth="yes"/>
      <point x="356" y="1422"/>
      <point x="326" y="1396"/>
      <point x="326" y="1338" type="curve" smooth="yes"/>
      <point x="326" y="1284"/>
      <point x="356" y="1256"/>
    </contour>
  </outline>
</glyph>
<glyph name="hookabovecomb" format="2">
  <unicode hex="0309"/>
  <anchor x="600" y="988" name="_top"/>
  <anchor x="598" y="1466" name="top"/>
  <outline>
    <contour>
      <point x="558" y="1172" type="line"/>
      <point x="618" y="1172" type="line"/>
      <point x="618" y="1242" type="line"/>
      <point x="690" y="1272"/>
      <point x="794" y="1326"/>
      <point x="794" y="1438" type="curve" smooth="yes"/>
      <point x="794" y="1542"/>
      <point x="700" y="1592"/>
      <point x="606" y="1592" type="curve" smooth="yes"/>
      <point x="538" y="1592"/>
      <point x="468" y="1566"/>
      <point x="422" y="1542" type="curve"/>
      <point x="428" y="1478" type="line"/>
      <point x="496" y="1514"/>
      <point x="548" y="1530"/>
      <point x="604" y="1530" type="curve"/>
      <point x="672" y="1530"/>
      <point x="732" y="1506"/>
      <point x="732" y="1438" type="curve" smooth="yes"/>
      <point x="732" y="1364"/>
      <point x="658" y="1312"/>
      <point x="558" y="1278" type="curve"/>
    </contour>
  </outline>
</glyph>
<glyph name="dotbelowcomb" format="2">
  <unicode hex="0323"/>
  <anchor x="600" y="0" name="_bottom"/>
  <anchor x="600" y="0" name="bottom"/>
  <outline>
    <contour>
      <point x="598" y="-404" type="curve" smooth="yes"/>
      <point x="644" y="-404"/>
      <point x="674" y="-374"/>
      <point x="674" y="-318" type="curve" smooth="yes"/>
      <point x="674" y="-260"/>
      <point x="644" y="-230"/>
      <point x="600" y="-230" type="curve" smooth="yes"/>
      <point x="556" y="-230"/>
      <point x="524" y="-258"/>
      <point x="524" y="-318" type="curve" smooth="yes"/>
      <point x="524" y="-374"/>
      <point x="556" y="-404"/>
    </contour>
  </outline>
</glyph>
<glyph name="dieresisbelowcomb" format="2">
  <unicode hex="0324"/>
  <anchor x="600" y="0" name="_bottom"/>
  <outline>
    <contour>
      <point x="796" y="-396" type="curve" smooth="yes"/>
      <point x="840" y="-396"/>
      <point x="868" y="-368"/>
      <point x="868" y="-314" type="curve" smooth="yes"/>
      <point x="868" y="-258"/>
      <point x="840" y="-230"/>
      <point x="798" y="-230" type="curve" smooth="yes"/>
      <point x="756" y="-230"/>
      <point x="726" y="-256"/>
      <point x="726" y="-314" type="curve" smooth="yes"/>
      <point x="726" y="-368"/>
      <point x="756" y="-396"/>
    </contour>
    <contour>
      <point x="396" y="-396" type="curve" smooth="yes"/>
      <point x="440" y="-396"/>
      <point x="468" y="-368"/>
      <point x="468" y="-314" type="curve" smooth="yes"/>
      <point x="468" y="-258"/>
      <point x="440" y="-230"/>
      <point x="398" y="-230" type="curve" smooth="yes"/>
      <point x="356" y="-230"/>
      <point x="326" y="-256"/>
      <point x="326" y="-314" type="curve" smooth="yes"/>
      <point x="326" y="-368"/>
      <point x="356" y="-396"/>
    </contour>
  </outline>
</glyph>
<glyph name="strokelongcomb" format="2">
  <unicode hex="0336"/>
  <anchor x="610" y="714" name="_center"/>
  <outline>
    <contour>
      <point x="-80" y="1064" type="line"/>
      <point x="52" y="1064"/>
      <point x="176" y="1064"/>
      <point x="284" y="1064" type="curve"/>
      <point x="936" y="1064" type="line"/>
      <point x="1044" y="1064"/>
      <point x="1168" y="1064"/>
      <point x="1300" y="1064" type="curve"/>
      <point x="1300" y="1124" type="line"/>
      <point x="1168" y="1124"/>
      <point x="1044" y="1124"/>
      <point x="936" y="1124" type="curve"/>
      <point x="284" y="1124" type="line"/>
      <point x="176" y="1124"/>
      <point x="52" y="1124"/>
      <point x="-80" y="1124" type="curve"/>
    </contour>
  </outline>
</glyph>
<glyph name="slashlongcomb" format="2">
  <unicode hex="0338"/>
  <anchor x="612" y="714" name="_center"/>
  <outline>
    <contour>
      <point x="38" y="-112" type="line"/>
      <point x="170" y="60"/>
      <point x="292" y="218"/>
      <point x="438" y="406" type="curve"/>
      <point x="832" y="926" type="line"/>
      <point x="978" y="1116"/>
      <point x="1096" y="1270"/>
      <point x="1232" y="1448" type="curve"/>
      <point x="1182" y="1486" type="line"/>
      <point x="1048" y="1310"/>
      <point x="928" y="1154"/>
      <point x="780" y="960" type="curve"/>
      <point x="390" y="446" type="line"/>
      <point x="246" y="258"/>
      <point x="130" y="110"/>
      <point x="-10" y="-72" type="curve"/>
    </contour>
  </outline>
</glyph>
<glyph name="pi" format="2">
  <advance width="1164"/>
  <unicode hex="03C0"/>
  <outline>
    <contour>
      <point x="848" y="0" type="curve"/>
      <point x="908" y="0" type="line"/>
      <point x="908" y="134"/>
      <point x="908" y="258"/>
      <point x="908" y="384" type="curve"/>
      <point x="908" y="988" type="line"/>
      <point x="848" y="988" type="line"/>
      <point x="848" y="728"/>
      <point x="848" y="562"/>
      <point x="848" y="398" type="curve"/>
      <point x="848" y="246"/>
      <point x="848" y="108"/>
    </contour>
    <contour>
      <point x="270" y="0" type="curve"/>
      <point x="330" y="0" type="line"/>
      <point x="330" y="148"/>
      <point x="330" y="286"/>
      <point x="330" y="446" type="curve"/>
      <point x="330" y="574" type="line"/>
      <point x="330" y="724"/>
      <point x="330" y="848"/>
      <point x="330" y="988" type="curve"/>
      <point x="270" y="988" type="line"/>
      <point x="270" y="840"/>
      <point x="270" y="702"/>
      <point x="270" y="542" type="curve"/>
      <point x="270" y="446" type="line"/>
      <point x="270" y="284"/>
      <point x="270" y="150"/>
    </contour>
    <contour>
      <point x="58" y="932" type="line"/>
      <point x="302" y="932" type="line"/>
      <point x="676" y="932" type="line"/>
      <point x="812" y="932"/>
      <point x="958" y="932"/>
      <point x="1098" y="932" type="curve"/>
      <point x="1098" y="988" type="line"/>
      <point x="58" y="988" type="line"/>
    </contour>
  </outline>
</glyph>
<glyph name="endash" format="2">
  <advance width="1140"/>
  <unicode hex="2013"/>
  <outline>
    <contour>
      <point x="140" y="562" type="line"/>
      <point x="256" y="562"/>
      <point x="366" y="562"/>
      <point x="460" y="562" type="curve"/>
      <point x="680" y="562" type="line"/>
      <point x="774" y="562"/>
      <point x="884" y="562"/>
      <point x="1000" y="562" type="curve"/>
      <point x="1000" y="618" type="line"/>
      <point x="884" y="618"/>
      <point x="774" y="618"/>
      <point x="680" y="618" type="curve"/>
      <point x="460" y="618" type="line"/>
      <point x="366" y="618"/>
      <point x="256" y="618"/>
      <point x="140" y="618" type="curve"/>
    </contour>
  </outline>
</glyph>
<glyph name="perthousand" format="2">
  <advance width="2468"/>
  <unicode hex="2030"/>
  <outline>
    <contour>
      <point x="400" y="0" type="curve"/>
      <point x="468" y="0" type="line"/>
      <point x="550" y="146"/>
      <point x="622" y="276"/>
      <point x="724" y="458" type="curve"/>
      <point x="1002" y="954" type="line"/>
      <point x="1108" y="1144"/>
      <point x="1180" y="1272"/>
      <point x="1266" y="1426" type="curve"/>
      <point x="1198" y="1426" type="line"/>
      <point x="1112" y="1272"/>
      <point x="1040" y="1144"/>
      <point x="934" y="954" type="curve"/>
      <point x="656" y="458" type="line"/>
      <point x="554" y="276"/>
      <point x="482" y="146"/>
    </contour>
    <contour>
      <point x="432" y="756" type="curve" smooth="yes"/>
      <point x="636" y="756"/>
      <point x="784" y="894"/>
      <point x="784" y="1100" type="curve" smooth="yes"/>
      <point x="784" y="1300"/>
      <point x="636" y="1450"/>
      <point x="434" y="1450" type="curve" smooth="yes"/>
      <point x="230" y="1450"/>
      <point x="80" y="1300"/>
      <point x="80" y="1100" type="curve" smooth="yes"/>
      <point x="80" y="894"/>
      <point x="230" y="756"/>
    </contour>
    <contour>
      <point x="432" y="818" type="curve"/>
      <point x="254" y="818"/>
      <point x="142" y="922"/>
      <point x="142" y="1100" type="curve" smooth="yes"/>
      <point x="142" y="1272"/>
      <point x="254" y="1388"/>
      <point x="434" y="1388" type="curve"/>
      <point x="614" y="1388"/>
      <point x="722" y="1272"/>
      <point x="722" y="1100" type="curve" smooth="yes"/>
      <point x="722" y="922"/>
      <point x="614" y="818"/>
    </contour>
    <contour>
      <point x="1236" y="-18" type="curve" smooth="yes"/>
      <point x="1440" y="-18"/>
      <point x="1588" y="120"/>
      <point x="1588" y="326" type="curve" smooth="yes"/>
      <point x="1588" y="526"/>
      <point x="1440" y="676"/>
      <point x="1238" y="676" type="curve" smooth="yes"/>
      <point x="1034" y="676"/>
      <point x="884" y="526"/>
      <point x="884" y="326" type="curve" smooth="yes"/>
      <point x="884" y="120"/>
      <point x="1034" y="-18"/>
    </contour>
    <contour>
      <point x="1236" y="44" type="curve"/>
      <point x="1058" y="44"/>
      <point x="946" y="148"/>
      <point x="946" y="326" type="curve" smooth="yes"/>
      <point x="946" y="498"/>
      <point x="1058" y="614"/>
      <point x="1238" y="614" type="curve"/>
      <point x="1418" y="614"/>
      <point x="1526" y="498"/>
      <point x="1526" y="326" type="curve" smooth="yes"/>
      <point x="1526" y="148"/>
      <point x="1418" y="44"/>
    </contour>
    <contour>
      <point x="2036" y="-18" type="curve" smooth="yes"/>
      <point x="2240" y="-18"/>
      <point x="2388" y="120"/>
      <point x="2388" y="326" type="curve" smooth="yes"/>
      <point x="2388" y="526"/>
      <point x="2240" y="676"/>
      <point x="2038" y="676" type="curve" smooth="yes"/>
      <point x="1834" y="676"/>
      <point x="1684" y="526"/>
      <point x="1684" y="326" type="curve" smooth="yes"/>
      <point x="1684" y="120"/>
      <point x="1834" y="-18"/>
    </contour>
    <contour>
      <point x="2036" y="44" type="curve"/>
      <point x="1858" y="44"/>
      <point x="1746" y="148"/>
      <point x="1746" y="326" type="curve" smooth="yes"/>
      <point x="1746" y="498"/>
      <point x="1858" y="614"/>
      <point x="2038" y="614" type="curve"/>
      <point x="2218" y="614"/>
      <point x="2326" y="498"/>
      <point x="2326" y="326" type="curve" smooth="yes"/>
      <point x="2326" y="148"/>
      <point x="2218" y="44"/>
    </contour>
  </outline>
</glyph>
<glyph name="minute" format="2">
  <advance width="454"/>
  <unicode hex="2032"/>
  <outline>
    <contour>
      <point x="160" y="814" type="curve"/>
      <point x="212" y="816" type="line"/>
      <point x="232" y="1002"/>
      <point x="264" y="1188"/>
      <point x="294" y="1370" type="curve"/>
      <point x="194" y="1368" type="line"/>
      <point x="188" y="1186"/>
      <point x="180" y="1002"/>
    </contour>
  </outline>
</glyph>
<glyph name="guilsinglleft" format="2">
  <advance width="614"/>
  <unicode hex="2039"/>
  <outline>
    <contour>
      <point x="464" y="-4" type="curve"/>
      <point x="534" y="0" type="line"/>
      <point x="406" y="164"/>
      <point x="276" y="328"/>
      <point x="148" y="492" type="curve"/>
      <point x="148" y="504" type="line"/>
      <point x="276" y="668"/>
      <point x="406" y="832"/>
      <point x="534" y="996" type="curve"/>
      <point x="464" y="1000" type="line"/>
      <point x="332" y="832"/>
      <point x="202" y="666"/>
      <point x="70" y="498" type="curve"/>
      <point x="202" y="330"/>
      <point x="332" y="164"/>
    </contour>
  </outline>
</glyph>
<glyph name="franc" format="2">
  <advance width="1136"/>
  <unicode hex="20A3"/>
  <outline>
    <contour>
      <point x="254" y="0" type="curve"/>
      <point x="316" y="0" type="line"/>
      <point x="316" y="156"/>
      <point x="316" y="290"/>
      <point x="316" y="456" type="curve"/>
      <point x="316" y="906" type="line"/>
      <point x="316" y="1074"/>
      <point x="316" y="1208"/>
      <point x="316" y="1364" type="curve"/>
      <point x="316" y="1368" type="line"/>
      <point x="254" y="1368" type="line"/>
      <point x="254" y="1214"/>
      <point x="254" y="1080"/>
      <point x="254" y="912" type="curve"/>
      <point x="254" y="456" type="line"/>
      <point x="254" y="290"/>
      <point x="254" y="156"/>
    </contour>
    <contour>
      <point x="304" y="1308" type="line"/>
      <point x="544" y="1308" type="line"/>
      <point x="752" y="1308"/>
      <point x="896" y="1308"/>
      <point x="1032" y="1308" type="curve"/>
      <point x="1032" y="1368" type="line"/>
      <point x="304" y="1368" type="line"/>
    </contour>
    <contour>
      <point x="304" y="666" type="line"/>
      <point x="558" y="666" type="line"/>
      <point x="738" y="666"/>
      <point x="856" y="666"/>
      <point x="988" y="666" type="curve"/>
      <point x="988" y="726" type="line"/>
      <point x="864" y="726"/>
      <point x="742" y="726"/>
      <point x="560" y="726" type="curve"/>
      <point x="304" y="726" type="line"/>
    </contour>
    <contour>
      <point x="76" y="316" type="line"/>
      <point x="192" y="316"/>
      <point x="302" y="316"/>
      <point x="396" y="316" type="curve"/>
      <point x="456" y="316" type="line"/>
      <point x="550" y="316"/>
      <point x="660" y="316"/>
      <point x="776" y="316" type="curve"/>
      <point x="776" y="372" type="line"/>
      <point x="660" y="372"/>
      <point x="550" y="372"/>
      <point x="456" y="372" type="curve"/>
      <point x="396" y="372" type="line"/>
      <point x="302" y="372"/>
      <point x="192" y="372"/>
      <point x="76" y="372" type="curve"/>
    </contour>
  </outline>
</glyph>
<glyph name="naira" format="2">
  <advance width="1570"/>
  <unicode hex="20A6"/>
  <outline>
    <contour>
      <point x="274" y="0" type="curve"/>
      <point x="336" y="0" type="line"/>
      <point x="336" y="156"/>
      <point x="336" y="290"/>
      <point x="336" y="456" type="curve"/>
      <point x="336" y="1256" type="line"/>
      <point x="344" y="1256" type="line"/>
      <point x="694" y="762" type="line"/>
      <point x="904" y="466"/>
      <point x="1078" y="220"/>
      <point x="1234" y="0" type="curve"/>
      <point x="1296" y="0" type="line"/>
      <point x="1296" y="156"/>
      <point x="1296" y="290"/>
      <point x="1296" y="456" type="curve"/>
      <point x="1296" y="912" type="line"/>
      <point x="1296" y="1080"/>
      <point x="1296" y="1214"/>
      <point x="1296" y="1368" type="curve"/>
      <point x="1234" y="1368" type="line"/>
      <point x="1234" y="1214"/>
      <point x="1234" y="1080"/>
      <point x="1234" y="912" type="curve"/>
      <point x="1234" y="120" type="line"/>
      <point x="1226" y="120" type="line"/>
      <point x="874" y="616" type="line"/>
      <point x="702" y="858"/>
      <point x="528" y="1104"/>
      <point x="340" y="1368" type="curve"/>
      <point x="274" y="1368" type="line"/>
      <point x="274" y="1214"/>
      <point x="274" y="1080"/>
      <point x="274" y="912" type="curve"/>
      <point x="274" y="456" type="line"/>
      <point x="274" y="290"/>
      <point x="274" y="156"/>
    </contour>
    <contour>
      <point x="76" y="680" type="line"/>
      <point x="192" y="680"/>
      <point x="302" y="680"/>
      <point x="396" y="680" type="curve"/>
      <point x="1174" y="680" type="line"/>
      <point x="1268" y="680"/>
      <point x="1378" y="680"/>
      <point x="1494" y="680" type="curve"/>
      <point x="1494" y="736" type="line"/>
      <point x="1378" y="736"/>
      <point x="1268" y="736"/>
      <point x="1174" y="736" type="curve"/>
      <point x="396" y="736" type="line"/>
      <point x="302" y="736"/>
      <point x="192" y="736"/>
      <point x="76" y="736" type="curve"/>
    </contour>
  </outline>
</glyph>
<glyph name="euro" format="2">
  <advance width="1400"/>
  <unicode hex="20AC"/>
  <outline>
    <contour>
      <point x="886" y="-18" type="curve" smooth="yes"/>
      <point x="1020" y="-18"/>
      <point x="1170" y="6"/>
      <point x="1282" y="80" type="curve"/>
      <point x="1270" y="148" type="line"/>
      <point x="1152" y="68"/>
      <point x="1012" y="46"/>
      <point x="882" y="46" type="curve"/>
      <point x="486" y="46"/>
      <point x="292" y="332"/>
      <point x="292" y="688" type="curve" smooth="yes"/>
      <point x="292" y="1074"/>
      <point x="516" y="1328"/>
      <point x="858" y="1328" type="curve"/>
      <point x="992" y="1328"/>
      <point x="1136" y="1296"/>
      <point x="1280" y="1220" type="curve"/>
      <point x="1290" y="1288" type="line"/>
      <point x="1200" y="1332"/>
      <point x="1044" y="1392"/>
      <point x="860" y="1392" type="curve" smooth="yes"/>
      <point x="488" y="1392"/>
      <point x="228" y="1106"/>
      <point x="228" y="690" type="curve" smooth="yes"/>
      <point x="228" y="294"/>
      <point x="466" y="-18"/>
    </contour>
    <contour>
      <point x="62" y="518" type="line"/>
      <point x="178" y="518"/>
      <point x="288" y="518"/>
      <point x="382" y="518" type="curve"/>
      <point x="682" y="518" type="line"/>
      <point x="776" y="518"/>
      <point x="886" y="518"/>
      <point x="1002" y="518" type="curve"/>
      <point x="1002" y="574" type="line"/>
      <point x="886" y="574"/>
      <point x="776" y="574"/>
      <point x="682" y="574" type="curve"/>
      <point x="382" y="574" type="line"/>
      <point x="288" y="574"/>
      <point x="178" y="574"/>
      <point x="62" y="574" type="curve"/>
    </contour>
    <contour>
      <point x="62" y="778" type="line"/>
      <point x="178" y="778"/>
      <point x="288" y="778"/>
      <point x="382" y="778" type="curve"/>
      <point x="742" y="778" type="line"/>
      <point x="836" y="778"/>
      <point x="946" y="778"/>
      <point x="1062" y="778" type="curve"/>
      <point x="1062" y="834" type="line"/>
      <point x="946" y="834"/>
      <point x="836" y="834"/>
      <point x="742" y="834" type="curve"/>
      <point x="382" y="834" type="line"/>
      <point x="288" y="834"/>
      <point x="178" y="834"/>
      <point x="62" y="834" type="curve"/>
    </contour>
  </outline>
</glyph>
<glyph name="liraTurkish" format="2">
  <advance width="1292"/>
  <unicode hex="20BA"/>
  <outline>
    <contour>
      <point x="310" y="0" type="curve"/>
      <point x="360" y="0" type="line"/>
      <point x="372" y="8" type="line"/>
      <point x="372" y="164"/>
      <point x="372" y="298"/>
      <point x="372" y="464" type="curve"/>
      <point x="372" y="912" type="line"/>
      <point x="372" y="1080"/>
      <point x="372" y="1214"/>
      <point x="372" y="1368" type="curve"/>
      <point x="310" y="1368" type="line"/>
      <point x="310" y="1214"/>
      <point x="310" y="1080"/>
      <point x="310" y="912" type="curve"/>
      <point x="310" y="456" type="line"/>
      <point x="310" y="290"/>
      <point x="310" y="156"/>
    </contour>
    <contour>
      <point x="360" y="0" type="line"/>
      <point x="576" y="0" type="line" smooth="yes"/>
      <point x="888" y="0"/>
      <point x="1076" y="148"/>
      <point x="1152" y="404" type="curve"/>
      <point x="1180" y="492"/>
      <point x="1192" y="594"/>
      <point x="1192" y="706" type="curve"/>
      <point x="1130" y="706" type="line"/>
      <point x="1130" y="602"/>
      <point x="1120" y="512"/>
      <point x="1098" y="432" type="curve"/>
      <point x="1030" y="186"/>
      <point x="858" y="60"/>
      <point x="578" y="60" type="curve" smooth="yes"/>
      <point x="360" y="60" type="line"/>
    </contour>
    <contour>
      <point x="156" y="426" type="line"/>
      <point x="264" y="474"/>
      <point x="362" y="518"/>
      <point x="452" y="558" type="curve"/>
      <point x="572" y="612" type="line"/>
      <point x="662" y="652"/>
      <point x="760" y="696"/>
      <point x="868" y="744" type="curve"/>
      <point x="846" y="796" type="line"/>
      <point x="738" y="748"/>
      <point x="640" y="704"/>
      <point x="554" y="666" type="curve"/>
      <point x="424" y="608" type="line"/>
      <point x="338" y="570"/>
      <point x="240" y="526"/>
      <point x="132" y="478" type="curve"/>
    </contour>
    <contour>
      <point x="156" y="706" type="line"/>
      <point x="264" y="754"/>
      <point x="362" y="798"/>
      <point x="452" y="838" type="curve"/>
      <point x="572" y="892" type="line"/>
      <point x="662" y="932"/>
      <point x="760" y="976"/>
      <point x="868" y="1024" type="curve"/>
      <point x="846" y="1076" type="line"/>
      <point x="738" y="1028"/>
      <point x="640" y="984"/>
      <point x="554" y="946" type="curve"/>
      <point x="424" y="888" type="line"/>
      <point x="338" y="850"/>
      <point x="240" y="806"/>
      <point x="132" y="758" type="curve"/>
    </contour>
  </outline>
</glyph>
<glyph name="ruble" format="2">
  <advance width="1210"/>
  <unicode hex="20BD"/>
  <outline>
    <contour>
      <point x="306" y="636" type="line"/>
      <point x="382" y="636"/>
      <point x="512" y="636"/>
      <point x="608" y="636" type="curve"/>
      <point x="998" y="636"/>
      <point x="1110" y="814"/>
      <point x="1110" y="1028" type="curve" smooth="yes"/>
      <point x="1110" y="1242"/>
      <point x="976" y="1368"/>
      <point x="684" y="1368" type="curve"/>
      <point x="500" y="1368"/>
      <point x="352" y="1368"/>
      <point x="254" y="1368" type="curve"/>
      <point x="294" y="1308" type="line"/>
      <point x="680" y="1308" type="line" smooth="yes"/>
      <point x="818" y="1308"/>
      <point x="1046" y="1300"/>
      <point x="1046" y="1028" type="curve" smooth="yes"/>
      <point x="1046" y="772"/>
      <point x="880" y="696"/>
      <point x="606" y="696" type="curve" smooth="yes"/>
      <point x="306" y="696" type="line"/>
    </contour>
    <contour>
      <point x="254" y="0" type="curve"/>
      <point x="316" y="0" type="line"/>
      <point x="316" y="156"/>
      <point x="316" y="290"/>
      <point x="316" y="456" type="curve"/>
      <point x="316" y="906" type="line"/>
      <point x="316" y="1074"/>
      <point x="316" y="1208"/>
      <point x="316" y="1364" type="curve"/>
      <point x="254" y="1368" type="line"/>
      <point x="254" y="1214"/>
      <point x="254" y="1080"/>
      <point x="254" y="912" type="curve"/>
      <point x="254" y="456" type="line"/>
      <point x="254" y="290"/>
      <point x="254" y="156"/>
    </contour>
    <contour>
      <point x="76" y="316" type="line"/>
      <point x="192" y="316"/>
      <point x="302" y="316"/>
      <point x="396" y="316" type="curve"/>
      <point x="456" y="316" type="line"/>
      <point x="550" y="316"/>
      <point x="660" y="316"/>
      <point x="776" y="316" type="curve"/>
      <point x="776" y="372" type="line"/>
      <point x="660" y="372"/>
      <point x="550" y="372"/>
      <point x="456" y="372" type="curve"/>
      <point x="396" y="372" type="line"/>
      <point x="302" y="372"/>
      <point x="192" y="372"/>
      <point x="76" y="372" type="curve"/>
    </contour>
  </outline>
</glyph>
<glyph name="Ohm" format="2">
  <advance width="1590"/>
  <unicode hex="2126"/>
  <outline>
    <contour>
      <point x="80" y="0" type="line"/>
      <point x="634" y="0" type="line"/>
      <point x="634" y="134"/>
      <point x="634" y="246"/>
      <point x="634" y="390" type="curve"/>
      <point x="338" y="504"/>
      <point x="218" y="682"/>
      <point x="218" y="908" type="curve" smooth="yes"/>
      <point x="218" y="1170"/>
      <point x="402" y="1384"/>
      <point x="798" y="1384" type="curve"/>
      <point x="1180" y="1384"/>
      <point x="1372" y="1186"/>
      <point x="1372" y="908" type="curve" smooth="yes"/>
      <point x="1372" y="684"/>
      <point x="1254" y="504"/>
      <point x="956" y="390" type="curve"/>
      <point x="956" y="246"/>
      <point x="956" y="134"/>
      <point x="956" y="0" type="curve"/>
      <point x="1510" y="0" type="line"/>
      <point x="1510" y="62" type="line"/>
      <point x="1398" y="62"/>
      <point x="1304" y="62"/>
      <point x="1140" y="62" type="curve"/>
      <point x="988" y="62" type="line"/>
      <point x="1020" y="32" type="line"/>
      <point x="1020" y="156"/>
      <point x="1020" y="258"/>
      <point x="1020" y="390" type="curve"/>
      <point x="968" y="330" type="line"/>
      <point x="1268" y="444"/>
      <point x="1438" y="628"/>
      <point x="1438" y="906" type="curve" smooth="yes"/>
      <point x="1438" y="1216"/>
      <point x="1206" y="1450"/>
      <point x="798" y="1450" type="curve" smooth="yes"/>
      <point x="396" y="1450"/>
      <point x="152" y="1222"/>
      <point x="152" y="906" type="curve" smooth="yes"/>
      <point x="152" y="644"/>
      <point x="308" y="448"/>
      <point x="622" y="330" type="curve"/>
      <point x="570" y="390" type="line"/>
      <point x="570" y="258"/>
      <point x="570" y="156"/>
      <point x="570" y="32" type="curve"/>
      <point x="602" y="62" type="line"/>
      <point x="450" y="62" type="line"/>
      <point x="286" y="62"/>
      <point x="192" y="62"/>
      <point x="80" y="62" type="curve"/>
    </contour>
  </outline>
</glyph>
<glyph name="estimated" format="2">
  <advance width="1686"/>
  <unicode hex="212E"/>
  <outline>
    <contour>
      <point x="876" y="-18" type="curve" smooth="yes"/>
      <point x="1180" y="-18"/>
      <point x="1430" y="90"/>
      <point x="1568" y="358" type="curve"/>
      <point x="1434" y="358" type="line"/>
      <point x="1342" y="126"/>
      <point x="1150" y="32"/>
      <point x="876" y="32" type="curve" smooth="yes"/>
      <point x="414" y="32"/>
      <point x="150" y="290"/>
      <point x="150" y="686" type="curve" smooth="yes"/>
      <point x="150" y="1080"/>
      <point x="418" y="1342"/>
      <point x="842" y="1342" type="curve" smooth="yes"/>
      <point x="1270" y="1342"/>
      <point x="1510" y="1104"/>
      <point x="1536" y="684" type="curve"/>
      <point x="1606" y="668" type="line"/>
      <point x="1584" y="1138"/>
      <point x="1292" y="1392"/>
      <point x="842" y="1392" type="curve" smooth="yes"/>
      <point x="396" y="1392"/>
      <point x="80" y="1112"/>
      <point x="80" y="686" type="curve" smooth="yes"/>
      <point x="80" y="254"/>
      <point x="396" y="-18"/>
    </contour>
    <contour>
      <point x="280" y="248" type="curve"/>
      <point x="280" y="1136" type="line"/>
      <point x="162" y="996"/>
      <point x="106" y="840"/>
      <point x="106" y="692" type="curve" smooth="yes"/>
      <point x="106" y="544"/>
      <point x="162" y="366"/>
    </contour>
    <contour>
      <point x="122" y="668" type="line"/>
      <point x="1606" y="668" type="line"/>
      <point x="1580" y="726" type="line"/>
      <point x="122" y="726" type="line"/>
    </contour>
    <contour>
      <point x="1402" y="692" type="line"/>
      <point x="1576" y="692" type="line"/>
      <point x="1560" y="840"/>
      <point x="1520" y="996"/>
      <point x="1402" y="1136" type="curve"/>
    </contour>
  </outline>
</glyph>
<glyph name="divisionslash" format="2">
  <advance width="724"/>
  <unicode hex="2215"/>
  <outline>
    <contour>
      <point x="80" y="0" type="curve"/>
      <point x="144" y="0" type="line"/>
      <point x="196" y="148"/>
      <point x="240" y="274"/>
      <point x="304" y="456" type="curve"/>
      <point x="476" y="948" type="line"/>
      <point x="544" y="1142"/>
      <point x="590" y="1272"/>
      <point x="644" y="1426" type="curve"/>
      <point x="580" y="1426" type="line"/>
      <point x="526" y="1272"/>
      <point x="480" y="1142"/>
      <point x="412" y="948" type="curve"/>
      <point x="240" y="456" type="line"/>
      <point x="176" y="274"/>
      <point x="132" y="148"/>
    </contour>
  </outline>
</glyph>
<glyph name="greaterequal" format="2">
  <advance width="1120"/>
  <unicode hex="2265"/>
  <outline>
    <contour>
      <point x="140" y="0" type="line"/>
      <point x="256" y="0"/>
      <point x="366" y="0"/>
      <point x="460" y="0" type="curve"/>
      <point x="660" y="0" type="line"/>
      <point x="754" y="0"/>
      <point x="864" y="0"/>
      <point x="980" y="0" type="curve"/>
      <point x="980" y="60" type="line"/>
      <point x="864" y="60"/>
      <point x="754" y="60"/>
      <point x="660" y="60" type="curve"/>
      <point x="460" y="60" type="line"/>
      <point x="366" y="60"/>
      <point x="256" y="60"/>
      <point x="140" y="60" type="curve"/>
    </contour>
    <contour>
      <point x="140" y="326" type="line"/>
      <point x="254" y="378"/>
      <point x="366" y="428"/>
      <point x="462" y="472" type="curve"/>
      <point x="662" y="562" type="line"/>
      <point x="754" y="604"/>
      <point x="866" y="654"/>
      <point x="980" y="706" type="curve"/>
      <point x="980" y="770" type="line"/>
      <point x="866" y="822"/>
      <point x="754" y="872"/>
      <point x="662" y="914" type="curve"/>
      <point x="462" y="1004" type="line"/>
      <point x="366" y="1048"/>
      <point x="254" y="1098"/>
      <point x="140" y="1150" type="curve"/>
      <point x="140" y="1084" type="line"/>
      <point x="300" y="1012"/>
      <point x="470" y="936"/>
      <point x="634" y="862" type="curve"/>
      <point x="896" y="744" type="line"/>
      <point x="896" y="732" type="line"/>
      <point x="634" y="614" type="line"/>
      <point x="470" y="540"/>
      <point x="300" y="464"/>
      <point x="140" y="392" type="curve"/>
    </contour>
  </outline>
</glyph>
<glyph name="OE.001" format="2">
  <advance width="2414"/>
  <anchor x="1208" y="0" name="bottom"/>
  <anchor x="1208" y="1426" name="top"/>
  <outline>
    <contour>
      <point x="826" y="-18" type="curve" smooth="yes"/>
      <point x="1248" y="-18"/>
      <point x="1514" y="296"/>
      <point x="1514" y="716" type="curve"/>
      <point x="1514" y="718" type="line"/>
      <point x="1514" y="1126"/>
      <point x="1260" y="1450"/>
      <point x="822" y="1450" type="curve" smooth="yes"/>
      <point x="390" y="1450"/>
      <point x="120" y="1130"/>
      <point x="120" y="716" type="curve" smooth="yes"/>
      <point x="120" y="316"/>
      <point x="366" y="-18"/>
    </contour>
    <contour>
      <point x="822" y="48" type="curve"/>
      <point x="380" y="48"/>
      <point x="186" y="364"/>
      <point x="186" y="716" type="curve" smooth="yes"/>
      <point x="186" y="1064"/>
      <point x="388" y="1384"/>
      <point x="822" y="1384" type="curve"/>
      <point x="1242" y="1384"/>
      <point x="1452" y="1088"/>
      <point x="1452" y="716" type="curve" smooth="yes"/>
      <point x="1452" y="372"/>
      <point x="1264" y="48"/>
    </contour>
    <contour>
      <point x="1452" y="0" type="curve"/>
      <point x="1516" y="0" type="line"/>
      <point x="1516" y="8" type="line"/>
      <point x="1516" y="170"/>
      <point x="1516" y="310"/>
      <point x="1516" y="484" type="curve"/>
      <point x="1516" y="944" type="line"/>
      <point x="1516" y="1118"/>
      <point x="1516" y="1258"/>
      <point x="1516" y="1420" type="curve"/>
      <point x="1516" y="1426" type="line"/>
      <point x="1452" y="1426" type="line"/>
      <point x="1452" y="1264"/>
      <point x="1452" y="1124"/>
      <point x="1452" y="950" type="curve"/>
      <point x="1452" y="476" type="line"/>
      <point x="1452" y="302"/>
      <point x="1452" y="162"/>
    </contour>
    <contour>
      <point x="1504" y="0" type="line"/>
      <point x="2288" y="0" type="line"/>
      <point x="2288" y="62" type="line"/>
      <point x="2134" y="62"/>
      <point x="1970" y="62"/>
      <point x="1784" y="62" type="curve"/>
      <point x="1504" y="62" type="line"/>
    </contour>
    <contour>
      <point x="1504" y="694" type="line"/>
      <point x="1792" y="694" type="line"/>
      <point x="1980" y="694"/>
      <point x="2106" y="694"/>
      <point x="2244" y="694" type="curve"/>
      <point x="2244" y="756" type="line"/>
      <point x="2114" y="756"/>
      <point x="1986" y="756"/>
      <point x="1794" y="756" type="curve"/>
      <point x="1504" y="756" type="line"/>
    </contour>
    <contour>
      <point x="1504" y="1364" type="line"/>
      <point x="1776" y="1364" type="line"/>
      <point x="1996" y="1364"/>
      <point x="2148" y="1364"/>
      <point x="2290" y="1364" type="curve"/>
      <point x="2290" y="1426" type="line"/>
      <point x="1504" y="1426" type="line"/>
    </contour>
  </outline>
</glyph>
<glyph name="_exclam" format="2">
  <advance width="428"/>
  <outline>
    <contour>
      <point x="190" y="468" type="curve"/>
      <point x="242" y="470" type="line"/>
      <point x="242" y="806"/>
      <point x="254" y="1140"/>
      <point x="266" y="1468" type="curve"/>
      <point x="166" y="1464" type="line"/>
      <point x="178" y="1136"/>
      <point x="190" y="806"/>
    </contour>
  </outline>
</glyph>
<glyph name="_question" format="2">
  <advance width="800"/>
  <outline>
    <contour>
      <point x="398" y="420" type="curve" smooth="yes"/>
      <point x="448" y="420"/>
      <point x="504" y="430"/>
      <point x="534" y="440" type="curve"/>
      <point x="528" y="500" type="line"/>
      <point x="502" y="490"/>
      <point x="456" y="476"/>
      <point x="398" y="476" type="curve"/>
      <point x="306" y="476"/>
      <point x="228" y="512"/>
      <point x="228" y="620" type="curve" smooth="yes"/>
      <point x="228" y="716"/>
      <point x="318" y="784"/>
      <point x="418" y="858" type="curve" smooth="yes"/>
      <point x="540" y="948"/>
      <point x="676" y="1052"/>
      <point x="676" y="1228" type="curve" smooth="yes"/>
      <point x="676" y="1402"/>
      <point x="542" y="1498"/>
      <point x="358" y="1498" type="curve" smooth="yes"/>
      <point x="236" y="1498"/>
      <point x="128" y="1454"/>
      <point x="66" y="1426" type="curve"/>
      <point x="72" y="1358" type="line"/>
      <point x="172" y="1408"/>
      <point x="266" y="1434"/>
      <point x="360" y="1434" type="curve"/>
      <point x="518" y="1434"/>
      <point x="614" y="1364"/>
      <point x="614" y="1230" type="curve" smooth="yes"/>
      <point x="614" y="1080"/>
      <point x="494" y="988"/>
      <point x="378" y="902" type="curve" smooth="yes"/>
      <point x="270" y="822"/>
      <point x="166" y="744"/>
      <point x="166" y="620" type="curve" smooth="yes"/>
      <point x="166" y="498"/>
      <point x="262" y="420"/>
    </contour>
  </outline>
</glyph>
<glyph name="brevecomb_acutecomb.case" format="2">
  <anchor x="597" y="988" name="_top"/>
  <outline>
    <contour>
      <point x="596" y="1150" type="curve" smooth="yes"/>
      <point x="780" y="1150"/>
      <point x="882" y="1276"/>
      <point x="882" y="1436" type="curve"/>
      <point x="824" y="1436" type="line"/>
      <point x="824" y="1292"/>
      <point x="740" y="1212"/>
      <point x="596" y="1212" type="curve"/>
      <point x="454" y="1212"/>
      <point x="370" y="1292"/>
      <point x="370" y="1438" type="curve"/>
      <point x="312" y="1436" type="line"/>
      <point x="312" y="1276"/>
      <point x="416" y="1150"/>
    </contour>
    <contour>
      <point x="486" y="1448" type="curve"/>
      <point x="552" y="1450" type="line"/>
      <point x="656" y="1566"/>
      <point x="758" y="1680"/>
      <point x="862" y="1798" type="curve"/>
      <point x="776" y="1798" type="line"/>
      <point x="680" y="1682"/>
      <point x="584" y="1566"/>
    </contour>
  </outline>
</glyph>
<glyph name="brevecomb_tildecomb.case" format="2">
  <anchor x="598" y="988" name="_top"/>
  <outline>
    <contour>
      <point x="596" y="1150" type="curve" smooth="yes"/>
      <point x="780" y="1150"/>
      <point x="882" y="1276"/>
      <point x="882" y="1436" type="curve"/>
      <point x="824" y="1436" type="line"/>
      <point x="824" y="1292"/>
      <point x="740" y="1212"/>
      <point x="596" y="1212" type="curve"/>
      <point x="454" y="1212"/>
      <point x="370" y="1292"/>
      <point x="370" y="1438" type="curve"/>
      <point x="312" y="1436" type="line"/>
      <point x="312" y="1276"/>
      <point x="416" y="1150"/>
    </contour>
    <contour>
      <point x="760" y="1534" type="curve" smooth="yes"/>
      <point x="864" y="1534"/>
      <point x="926" y="1612"/>
      <point x="926" y="1756" type="curve"/>
      <point x="868" y="1756" type="line"/>
      <point x="868" y="1644"/>
      <point x="840" y="1596"/>
      <point x="752" y="1596" type="curve"/>
      <point x="640" y="1596"/>
      <point x="590" y="1782"/>
      <point x="436" y="1782" type="curve" smooth="yes"/>
      <point x="332" y="1782"/>
      <point x="270" y="1704"/>
      <point x="270" y="1560" type="curve"/>
      <point x="328" y="1560" type="line"/>
      <point x="328" y="1672"/>
      <point x="356" y="1720"/>
      <point x="444" y="1720" type="curve"/>
      <point x="556" y="1720"/>
      <point x="606" y="1534"/>
    </contour>
  </outline>
</glyph>
<glyph name="cent.BRACKET.140" format="2">
  <advance width="1004"/>
  <anchor x="580" y="0" name="bottom"/>
  <anchor x="562" y="988" name="top"/>
  <outline>
    <contour>
      <point x="526" y="-274" type="curve"/>
      <point x="584" y="-274" type="line"/>
      <point x="584" y="-172"/>
      <point x="584" y="-76"/>
      <point x="584" y="18" type="curve"/>
      <point x="526" y="18" type="line"/>
      <point x="526" y="-76"/>
      <point x="526" y="-172"/>
    </contour>
    <contour>
      <point x="526" y="964" type="curve"/>
      <point x="584" y="964" type="line"/>
      <point x="584" y="1056"/>
      <point x="584" y="1148"/>
      <point x="584" y="1246" type="curve"/>
      <point x="526" y="1246" type="line"/>
      <point x="526" y="1148"/>
      <point x="526" y="1056"/>
    </contour>
    <contour>
      <point x="608" y="-18" type="curve" smooth="yes"/>
      <point x="732" y="-18"/>
      <point x="836" y="18"/>
      <point x="898" y="56" type="curve"/>
      <point x="884" y="124" type="line"/>
      <point x="798" y="70"/>
      <point x="702" y="46"/>
      <point x="608" y="46" type="curve" smooth="yes"/>
      <point x="324" y="46"/>
      <point x="186" y="244"/>
      <point x="186" y="496" type="curve" smooth="yes"/>
      <point x="186" y="770"/>
      <point x="346" y="944"/>
      <point x="592" y="944" type="curve"/>
      <point x="674" y="944"/>
      <point x="772" y="926"/>
      <point x="882" y="862" type="curve"/>
      <point x="892" y="930" type="line"/>
      <point x="816" y="974"/>
      <point x="704" y="1008"/>
      <point x="590" y="1008" type="curve" smooth="yes"/>
      <point x="300" y="1008"/>
      <point x="124" y="786"/>
      <point x="124" y="496" type="curve" smooth="yes"/>
      <point x="124" y="208"/>
      <point x="298" y="-18"/>
    </contour>
  </outline>
</glyph>
<glyph name="circumflexcomb.narrow" format="2">
  <anchor x="600" y="988" name="_top"/>
  <anchor x="598" y="1490" name="top"/>
  <outline>
    <contour>
      <point x="830" y="1170" type="curve"/>
      <point x="888" y="1172" type="line"/>
      <point x="802" y="1302"/>
      <point x="718" y="1428"/>
      <point x="634" y="1554" type="curve"/>
      <point x="560" y="1554" type="line"/>
      <point x="652" y="1424"/>
      <point x="738" y="1300"/>
    </contour>
    <contour>
      <point x="306" y="1174" type="curve"/>
      <point x="364" y="1174" type="line"/>
      <point x="456" y="1304"/>
      <point x="542" y="1424"/>
      <point x="634" y="1554" type="curve"/>
      <point x="560" y="1554" type="line"/>
      <point x="474" y="1426"/>
      <point x="392" y="1302"/>
    </contour>
  </outline>
</glyph>
<glyph name="circumflexcomb_tildecomb.case" format="2">
  <anchor x="600" y="988" name="_top"/>
  <outline>
    <contour>
      <point x="266" y="1154" type="curve"/>
      <point x="332" y="1154" type="line"/>
      <point x="436" y="1270"/>
      <point x="534" y="1380"/>
      <point x="638" y="1500" type="curve"/>
      <point x="556" y="1500" type="line"/>
      <point x="458" y="1384"/>
      <point x="364" y="1268"/>
    </contour>
    <contour>
      <point x="862" y="1150" type="curve"/>
      <point x="928" y="1152" type="line"/>
      <point x="830" y="1268"/>
      <point x="734" y="1384"/>
      <point x="638" y="1500" type="curve"/>
      <point x="556" y="1500" type="line"/>
      <point x="660" y="1380"/>
      <point x="758" y="1268"/>
    </contour>
    <contour>
      <point x="760" y="1554" type="curve" smooth="yes"/>
      <point x="864" y="1554"/>
      <point x="926" y="1632"/>
      <point x="926" y="1776" type="curve"/>
      <point x="868" y="1776" type="line"/>
      <point x="868" y="1664"/>
      <point x="840" y="1616"/>
      <point x="752" y="1616" type="curve"/>
      <point x="640" y="1616"/>
      <point x="590" y="1802"/>
      <point x="436" y="1802" type="curve" smooth="yes"/>
      <point x="332" y="1802"/>
      <point x="270" y="1724"/>
      <point x="270" y="1580" type="curve"/>
      <point x="328" y="1580" type="line"/>
      <point x="328" y="1692"/>
      <point x="356" y="1740"/>
      <point x="444" y="1740" type="curve"/>
      <point x="556" y="1740"/>
      <point x="606" y="1554"/>
    </contour>
  </outline>
</glyph>
<glyph name="dblgravecomb.case" format="2">
  <anchor x="600" y="988" name="_top"/>
  <anchor x="598" y="1432" name="top"/>
  <outline>
    <contour>
      <point x="444" y="1152" type="curve"/>
      <point x="510" y="1154" type="line"/>
      <point x="412" y="1270"/>
      <point x="316" y="1388"/>
      <point x="220" y="1502" type="curve"/>
      <point x="134" y="1502" type="line"/>
      <point x="238" y="1382"/>
      <point x="340" y="1268"/>
    </contour>
    <contour>
      <point x="778" y="1152" type="curve"/>
      <point x="838" y="1154" type="line"/>
      <point x="754" y="1272"/>
      <point x="670" y="1388"/>
      <point x="588" y="1502" type="curve"/>
      <point x="506" y="1502" type="line"/>
      <point x="598" y="1382"/>
      <point x="688" y="1268"/>
    </contour>
  </outline>
</glyph>
<glyph name="dieresiscomb.case" format="2">
  <anchor x="598" y="988" name="_top"/>
  <anchor x="596" y="1330" name="top"/>
  <outline>
    <contour>
      <point x="796" y="1236" type="curve" smooth="yes"/>
      <point x="840" y="1236"/>
      <point x="868" y="1264"/>
      <point x="868" y="1318" type="curve" smooth="yes"/>
      <point x="868" y="1374"/>
      <point x="840" y="1402"/>
      <point x="798" y="1402" type="curve" smooth="yes"/>
      <point x="756" y="1402"/>
      <point x="726" y="1376"/>
      <point x="726" y="1318" type="curve" smooth="yes"/>
      <point x="726" y="1264"/>
      <point x="756" y="1236"/>
    </contour>
    <contour>
      <point x="396" y="1236" type="curve" smooth="yes"/>
      <point x="440" y="1236"/>
      <point x="468" y="1264"/>
      <point x="468" y="1318" type="curve" smooth="yes"/>
      <point x="468" y="1374"/>
      <point x="440" y="1402"/>
      <point x="398" y="1402" type="curve" smooth="yes"/>
      <point x="356" y="1402"/>
      <point x="326" y="1376"/>
      <point x="326" y="1318" type="curve" smooth="yes"/>
      <point x="326" y="1264"/>
      <point x="356" y="1236"/>
    </contour>
  </outline>
</glyph>
<glyph name="eight.dnom" format="2">
  <advance width="858"/>
  <outline>
    <contour>
      <point x="430" y="-12" type="curve" smooth="yes"/>
      <point x="658" y="-12"/>
      <point x="768" y="108"/>
      <point x="768" y="256" type="curve" smooth="yes"/>
      <point x="768" y="410"/>
      <point x="650" y="480"/>
      <point x="572" y="496" type="curve"/>
      <point x="572" y="506" type="line"/>
      <point x="648" y="528"/>
      <point x="734" y="602"/>
      <point x="734" y="710" type="curve" smooth="yes"/>
      <point x="734" y="844"/>
      <point x="612" y="934"/>
      <point x="430" y="934" type="curve" smooth="yes"/>
      <point x="248" y="934"/>
      <point x="126" y="844"/>
      <point x="126" y="710" type="curve" smooth="yes"/>
      <point x="126" y="600"/>
      <point x="208" y="530"/>
      <point x="284" y="506" type="curve"/>
      <point x="284" y="496" type="line"/>
      <point x="208" y="480"/>
      <point x="90" y="408"/>
      <point x="90" y="256" type="curve" smooth="yes"/>
      <point x="90" y="108"/>
      <point x="200" y="-12"/>
    </contour>
    <contour>
      <point x="430" y="48" type="curve"/>
      <point x="234" y="48"/>
      <point x="152" y="138"/>
      <point x="152" y="260" type="curve" smooth="yes"/>
      <point x="152" y="402"/>
      <point x="274" y="468"/>
      <point x="430" y="468" type="curve"/>
      <point x="584" y="468"/>
      <point x="706" y="402"/>
      <point x="706" y="260" type="curve" smooth="yes"/>
      <point x="706" y="138"/>
      <point x="624" y="48"/>
    </contour>
    <contour>
      <point x="430" y="526" type="curve"/>
      <point x="274" y="526"/>
      <point x="188" y="600"/>
      <point x="188" y="708" type="curve" smooth="yes"/>
      <point x="188" y="816"/>
      <point x="282" y="874"/>
      <point x="430" y="874" type="curve"/>
      <point x="574" y="874"/>
      <point x="672" y="816"/>
      <point x="672" y="708" type="curve" smooth="yes"/>
      <point x="672" y="600"/>
      <point x="582" y="526"/>
    </contour>
  </outline>
</glyph>
<glyph name="f.calt" format="2">
  <advance width="768"/>
  <outline>
    <contour>
      <point x="264" y="0" type="curve"/>
      <point x="324" y="0" type="line"/>
      <point x="324" y="150"/>
      <point x="324" y="280"/>
      <point x="324" y="442" type="curve"/>
      <point x="324" y="960" type="line"/>
      <point x="324" y="988" type="line"/>
      <point x="324" y="1014"/>
      <point x="324" y="1088"/>
      <point x="324" y="1142" type="curve" smooth="yes"/>
      <point x="324" y="1328"/>
      <point x="402" y="1424"/>
      <point x="596" y="1424" type="curve" smooth="yes"/>
      <point x="652" y="1424"/>
      <point x="700" y="1416"/>
      <point x="740" y="1402" type="curve"/>
      <point x="740" y="1468" type="line"/>
      <point x="704" y="1480"/>
      <point x="650" y="1488"/>
      <point x="596" y="1488" type="curve" smooth="yes"/>
      <point x="410" y="1488"/>
      <point x="264" y="1398"/>
      <point x="264" y="1142" type="curve" smooth="yes"/>
      <point x="264" y="880"/>
      <point x="264" y="710"/>
      <point x="264" y="542" type="curve"/>
      <point x="264" y="442" type="line"/>
      <point x="264" y="280"/>
      <point x="264" y="150"/>
    </contour>
    <contour>
      <point x="58" y="932" type="line"/>
      <point x="282" y="932" type="line"/>
      <point x="298" y="932" type="line"/>
      <point x="434" y="932"/>
      <point x="570" y="932"/>
      <point x="710" y="932" type="curve"/>
      <point x="710" y="988" type="line"/>
      <point x="58" y="988" type="line"/>
    </contour>
  </outline>
</glyph>
<glyph name="gravecomb.case" format="2">
  <anchor x="600" y="988" name="_top"/>
  <anchor x="598" y="1332" name="top"/>
  <outline>
    <contour>
      <point x="646" y="1152" type="curve"/>
      <point x="712" y="1154" type="line"/>
      <point x="614" y="1270"/>
      <point x="518" y="1388"/>
      <point x="422" y="1502" type="curve"/>
      <point x="336" y="1502" type="line"/>
      <point x="440" y="1382"/>
      <point x="542" y="1268"/>
    </contour>
  </outline>
</glyph>
<glyph name="hungarumlautcomb.case" format="2">
  <anchor x="600" y="988" name="_top"/>
  <anchor x="598" y="1432" name="top"/>
  <outline>
    <contour>
      <point x="688" y="1152" type="curve"/>
      <point x="754" y="1154" type="line"/>
      <point x="858" y="1270"/>
      <point x="960" y="1384"/>
      <point x="1064" y="1502" type="curve"/>
      <point x="978" y="1502" type="line"/>
      <point x="882" y="1386"/>
      <point x="786" y="1268"/>
    </contour>
    <contour>
      <point x="360" y="1152" type="curve"/>
      <point x="422" y="1154" type="line"/>
      <point x="514" y="1270"/>
      <point x="602" y="1384"/>
      <point x="692" y="1502" type="curve"/>
      <point x="610" y="1502" type="line"/>
      <point x="528" y="1384"/>
      <point x="446" y="1270"/>
    </contour>
  </outline>
</glyph>
<glyph name="macroncomb.case" format="2">
  <anchor x="600" y="988" name="_top"/>
  <anchor x="600" y="1316" name="top"/>
  <outline>
    <contour>
      <point x="308" y="1280" type="line"/>
      <point x="396" y="1280"/>
      <point x="494" y="1280"/>
      <point x="600" y="1280" type="curve"/>
      <point x="706" y="1280"/>
      <point x="804" y="1280"/>
      <point x="892" y="1280" type="curve"/>
      <point x="892" y="1336" type="line"/>
      <point x="804" y="1336"/>
      <point x="706" y="1336"/>
      <point x="600" y="1336" type="curve"/>
      <point x="494" y="1336"/>
      <point x="396" y="1336"/>
      <point x="308" y="1336" type="curve"/>
    </contour>
  </outline>
</glyph>
<glyph name="macroncomb.narrow" format="2">
  <anchor x="600" y="988" name="_top"/>
  <anchor x="600" y="1336" name="top"/>
  <outline>
    <contour>
      <point x="358" y="1300" type="line"/>
      <point x="430" y="1300"/>
      <point x="512" y="1300"/>
      <point x="600" y="1300" type="curve"/>
      <point x="688" y="1300"/>
      <point x="770" y="1300"/>
      <point x="842" y="1300" type="curve"/>
      <point x="842" y="1356" type="line"/>
      <point x="770" y="1356"/>
      <point x="688" y="1356"/>
      <point x="600" y="1356" type="curve"/>
      <point x="512" y="1356"/>
      <point x="430" y="1356"/>
      <point x="358" y="1356" type="curve"/>
    </contour>
  </outline>
</glyph>
<glyph name="naira.BRACKET.140" format="2">
  <advance width="1570"/>
  <outline>
    <contour>
      <point x="274" y="0" type="curve"/>
      <point x="336" y="0" type="line"/>
      <point x="336" y="156"/>
      <point x="336" y="290"/>
      <point x="336" y="456" type="curve"/>
      <point x="336" y="1256" type="line"/>
      <point x="344" y="1256" type="line"/>
      <point x="694" y="762" type="line"/>
      <point x="904" y="466"/>
      <point x="1078" y="220"/>
      <point x="1234" y="0" type="curve"/>
      <point x="1296" y="0" type="line"/>
      <point x="1296" y="156"/>
      <point x="1296" y="290"/>
      <point x="1296" y="456" type="curve"/>
      <point x="1296" y="912" type="line"/>
      <point x="1296" y="1080"/>
      <point x="1296" y="1214"/>
      <point x="1296" y="1368" type="curve"/>
      <point x="1234" y="1368" type="line"/>
      <point x="1234" y="1214"/>
      <point x="1234" y="1080"/>
      <point x="1234" y="912" type="curve"/>
      <point x="1234" y="120" type="line"/>
      <point x="1226" y="120" type="line"/>
      <point x="874" y="616" type="line"/>
      <point x="702" y="858"/>
      <point x="528" y="1104"/>
      <point x="340" y="1368" type="curve"/>
      <point x="274" y="1368" type="line"/>
      <point x="274" y="1214"/>
      <point x="274" y="1080"/>
      <point x="274" y="912" type="curve"/>
      <point x="274" y="456" type="line"/>
      <point x="274" y="290"/>
      <point x="274" y="156"/>
    </contour>
    <contour>
      <point x="76" y="680" type="line"/>
      <point x="156" y="680"/>
      <point x="232" y="680"/>
      <point x="302" y="680" type="curve"/>
      <point x="302" y="736" type="line"/>
      <point x="232" y="736"/>
      <point x="156" y="736"/>
      <point x="76" y="736" type="curve"/>
    </contour>
    <contour>
      <point x="1268" y="680" type="line"/>
      <point x="1338" y="680"/>
      <point x="1414" y="680"/>
      <point x="1494" y="680" type="curve"/>
      <point x="1494" y="736" type="line"/>
      <point x="1414" y="736"/>
      <point x="1338" y="736"/>
      <point x="1268" y="736" type="curve"/>
    </contour>
  </outline>
</glyph>
<glyph name="tildecomb.narrow" format="2">
  <anchor x="600" y="988" name="_top"/>
  <anchor x="600" y="1350" name="top"/>
  <outline>
    <contour>
      <point x="746" y="1176" type="curve" smooth="yes"/>
      <point x="840" y="1176"/>
      <point x="898" y="1254"/>
      <point x="898" y="1398" type="curve"/>
      <point x="842" y="1398" type="line"/>
      <point x="842" y="1286"/>
      <point x="818" y="1238"/>
      <point x="740" y="1238" type="curve"/>
      <point x="640" y="1238"/>
      <point x="594" y="1424"/>
      <point x="454" y="1424" type="curve" smooth="yes"/>
      <point x="360" y="1424"/>
      <point x="304" y="1344"/>
      <point x="304" y="1202" type="curve"/>
      <point x="358" y="1202" type="line"/>
      <point x="358" y="1314"/>
      <point x="384" y="1362"/>
      <point x="462" y="1362" type="curve"/>
      <point x="562" y="1362"/>
      <point x="608" y="1176"/>
    </contour>
  </outline>
</glyph>
<glyph name="won.BRACKET.140" format="2">
  <advance width="2106"/>
  <outline>
    <contour>
      <point x="578" y="0" type="curve"/>
      <point x="674" y="0" type="line"/>
      <point x="734" y="208"/>
      <point x="808" y="466"/>
      <point x="870" y="680" type="curve"/>
      <point x="1046" y="1290" type="line"/>
      <point x="1058" y="1290" type="line"/>
      <point x="1236" y="676" type="line"/>
      <point x="1298" y="462"/>
      <point x="1370" y="214"/>
      <point x="1432" y="0" type="curve"/>
      <point x="1528" y="0" type="line"/>
      <point x="1568" y="132"/>
      <point x="1616" y="292"/>
      <point x="1658" y="430" type="curve"/>
      <point x="1790" y="866" type="line"/>
      <point x="1832" y="1004"/>
      <point x="1892" y="1202"/>
      <point x="1942" y="1368" type="curve"/>
      <point x="1878" y="1368" type="line"/>
      <point x="1812" y="1150"/>
      <point x="1736" y="898"/>
      <point x="1674" y="694" type="curve"/>
      <point x="1486" y="72" type="line"/>
      <point x="1476" y="72" type="line"/>
      <point x="1298" y="682" type="line"/>
      <point x="1234" y="902"/>
      <point x="1162" y="1148"/>
      <point x="1098" y="1368" type="curve"/>
      <point x="1004" y="1368" type="line"/>
      <point x="942" y="1152"/>
      <point x="870" y="902"/>
      <point x="808" y="686" type="curve"/>
      <point x="632" y="72" type="line"/>
      <point x="620" y="72" type="line"/>
      <point x="436" y="680" type="line"/>
      <point x="370" y="898"/>
      <point x="294" y="1150"/>
      <point x="228" y="1368" type="curve"/>
      <point x="164" y="1368" type="line"/>
      <point x="214" y="1202"/>
      <point x="276" y="998"/>
      <point x="320" y="852" type="curve"/>
      <point x="448" y="430" type="line"/>
      <point x="488" y="298"/>
      <point x="536" y="138"/>
    </contour>
    <contour>
      <point x="60" y="680" type="line"/>
      <point x="176" y="680"/>
      <point x="286" y="680"/>
      <point x="380" y="680" type="curve"/>
      <point x="380" y="736" type="line"/>
      <point x="286" y="736"/>
      <point x="176" y="736"/>
      <point x="60" y="736" type="curve"/>
    </contour>
    <contour>
      <point x="1726" y="680" type="line"/>
      <point x="1820" y="680"/>
      <point x="1930" y="680"/>
      <point x="2046" y="680" type="curve"/>
      <point x="2046" y="736" type="line"/>
      <point x="1930" y="736"/>
      <point x="1820" y="736"/>
      <point x="1726" y="736" type="curve"/>
    </contour>
  </outline>
</glyph>
